<?xml version="1.0" encoding="UTF-8" standalone="no"?>
<!-- Created with Inkscape (http://www.inkscape.org/) -->

<svg
   width="72.362617mm"
   height="15mm"
   viewBox="0 0 72.362615 15"
   version="1.1"
   id="svg1"
   xml:space="preserve"
   sodipodi:docname="aileron-loves-go.svg"
   inkscape:version="1.4 (86a8ad7, 2024-10-11)"
   xmlns:inkscape="http://www.inkscape.org/namespaces/inkscape"
   xmlns:sodipodi="http://sodipodi.sourceforge.net/DTD/sodipodi-0.dtd"
   xmlns:xlink="http://www.w3.org/1999/xlink"
   xmlns="http://www.w3.org/2000/svg"
   xmlns:svg="http://www.w3.org/2000/svg"><sodipodi:namedview
     id="namedview1"
     pagecolor="#ffffff"
     bordercolor="#000000"
     borderopacity="0.25"
     inkscape:showpageshadow="2"
     inkscape:pageopacity="0.0"
     inkscape:pagecheckerboard="0"
     inkscape:deskcolor="#d1d1d1"
     inkscape:document-units="mm"
     inkscape:zoom="8.0666651"
     inkscape:cx="128.30581"
     inkscape:cy="38.119842"
     inkscape:window-width="3840"
     inkscape:window-height="2054"
     inkscape:window-x="-11"
     inkscape:window-y="-11"
     inkscape:window-maximized="1"
     inkscape:current-layer="svg1" /><defs
     id="defs1"><linearGradient
       id="linearGradient26275"><stop
         style="stop-color:#ffffff;stop-opacity:1;"
         offset="0.80000001"
         id="stop26271" /><stop
         style="stop-color:#00196e;stop-opacity:1;"
         offset="1"
         id="stop26273" /></linearGradient><linearGradient
       id="linearGradient17908"><stop
         style="stop-color:#00196e;stop-opacity:1;"
         offset="0"
         id="stop17904" /><stop
         style="stop-color:#dc231e;stop-opacity:1;"
         offset="0.59915614"
         id="stop17906" /></linearGradient><radialGradient
       xlink:href="#linearGradient26275"
       id="radialGradient48121"
       gradientUnits="userSpaceOnUse"
       gradientTransform="matrix(1.0823864,0,0,1.0823863,98.927643,-12.307667)"
       cx="-121.76502"
       cy="109.09166"
       fx="-121.76502"
       fy="109.09166"
       r="27.5"
       spreadMethod="pad" /><linearGradient
       xlink:href="#linearGradient17908"
       id="linearGradient3"
       gradientUnits="userSpaceOnUse"
       gradientTransform="matrix(0.70293011,0.70293011,-0.70428271,0.70428271,27.358117,88.994664)"
       x1="-122.9733"
       y1="143.66483"
       x2="-43.126656"
       y2="143.66483" /><linearGradient
       xlink:href="#linearGradient17908"
       id="linearGradient4"
       gradientUnits="userSpaceOnUse"
       gradientTransform="matrix(0.70293011,-0.70293011,-0.70428271,-0.70428271,27.358117,162.89805)"
       x1="-122.9733"
       y1="143.66483"
       x2="-43.126656"
       y2="143.66483" /></defs><g
     id="layer1"
     transform="matrix(0.2519685,0,0,0.2519685,-17.883526,-28.978681)"><g
       id="g48146"
       transform="translate(138.90172,39.00313)"><circle
         style="mix-blend-mode:normal;fill:url(#radialGradient48121);fill-opacity:1;stroke:#00196e;stroke-width:1.98391;stroke-dasharray:none;stroke-opacity:1"
         id="circle48107"
         cx="-32.869183"
         cy="105.77164"
         r="28.77367" /><g
         id="g48115"
         transform="translate(97.234383,-20.174708)"><path
           id="path48109"
           style="display:inline;fill:url(#linearGradient3);fill-opacity:1;stroke:#ffffff;stroke-width:0.529167;stroke-linecap:round;stroke-linejoin:round;stroke-dasharray:none;stroke-opacity:1;paint-order:normal"
           d="m -118.16922,117.76532 a 39.687504,19.84375 45 0 0 -42.09493,-14.03164 39.687504,19.84375 45 0 0 -1.26577,19.3688 39.6875,19.84375 45 0 1 3.13666,-11.88525 39.6875,19.84375 45 0 1 42.09493,14.03164 39.6875,19.84375 45 0 1 15.3135,22.75904 39.687504,19.84375 45 0 0 -17.18439,-30.24259 z" /><ellipse
           style="display:inline;fill:#00196e;fill-opacity:1;stroke:none;stroke-width:0.0735473;stroke-dasharray:none;stroke-opacity:1"
           id="ellipse48111"
           cx="-163.17648"
           cy="125.94636"
           rx="1.9843755"
           ry="3.3072896" /><path
           id="path48113"
           style="display:inline;fill:url(#linearGradient4);fill-opacity:1;stroke:#ffffff;stroke-width:0.529167;stroke-linecap:round;stroke-linejoin:round;stroke-dasharray:none;stroke-opacity:1;paint-order:normal"
           d="m -118.16922,134.12739 a 19.84375,39.687504 45 0 1 -42.09493,14.03164 19.84375,39.687504 45 0 1 -1.26577,-19.3688 19.84375,39.6875 45 0 0 3.13666,11.88525 19.84375,39.6875 45 0 0 42.09493,-14.03164 19.84375,39.6875 45 0 0 15.3135,-22.75904 19.84375,39.687504 45 0 1 -17.18439,30.24259 z" /></g></g></g><style
     type="text/css"
     id="style1">
	.st0{fill:#2DBCAF;}
	.st1{fill:#5DC9E1;}
	.st2{fill:#FDDD00;}
	.st3{fill:#CE3262;}
	.st4{fill:#00ACD7;}
	.st5{fill:#FFFFFF;}
</style><g
     id="g14"
     transform="matrix(0.19547966,0,0,0.19547966,27.385141,-15.221155)">
	<g
   id="g3">
		<g
   id="g2">
			<g
   id="g1">
				<path
   class="st4"
   d="m 40.2,101.1 c -0.4,0 -0.5,-0.2 -0.3,-0.5 L 42,97.9 c 0.2,-0.3 0.7,-0.5 1.1,-0.5 h 35.7 c 0.4,0 0.5,0.3 0.3,0.6 l -1.7,2.6 c -0.2,0.3 -0.7,0.6 -1,0.6 z"
   id="path1" />
			</g>
		</g>
	</g>
	<g
   id="g6">
		<g
   id="g5">
			<g
   id="g4">
				<path
   class="st4"
   d="m 25.1,110.3 c -0.4,0 -0.5,-0.2 -0.3,-0.5 l 2.1,-2.7 c 0.2,-0.3 0.7,-0.5 1.1,-0.5 h 45.6 c 0.4,0 0.6,0.3 0.5,0.6 l -0.8,2.4 c -0.1,0.4 -0.5,0.6 -0.9,0.6 z"
   id="path3" />
			</g>
		</g>
	</g>
	<g
   id="g9">
		<g
   id="g8">
			<g
   id="g7">
				<path
   class="st4"
   d="m 49.3,119.5 c -0.4,0 -0.5,-0.3 -0.3,-0.6 l 1.4,-2.5 c 0.2,-0.3 0.6,-0.6 1,-0.6 h 20 c 0.4,0 0.6,0.3 0.6,0.7 l -0.2,2.4 c 0,0.4 -0.4,0.7 -0.7,0.7 z"
   id="path6" />
			</g>
		</g>
	</g>
	<g
   id="g13">
		<g
   id="CXHf1q_3_">
			<g
   id="g12">
				<g
   id="g10">
					<path
   class="st4"
   d="m 153.1,99.3 c -6.3,1.6 -10.6,2.8 -16.8,4.4 -1.5,0.4 -1.6,0.5 -2.9,-1 -1.5,-1.7 -2.6,-2.8 -4.7,-3.8 -6.3,-3.1 -12.4,-2.2 -18.1,1.5 -6.8,4.4 -10.3,10.9 -10.2,19 0.1,8 5.6,14.6 13.5,15.7 6.8,0.9 12.5,-1.5 17,-6.6 0.9,-1.1 1.7,-2.3 2.7,-3.7 -3.6,0 -8.1,0 -19.3,0 -2.1,0 -2.6,-1.3 -1.9,-3 1.3,-3.1 3.7,-8.3 5.1,-10.9 0.3,-0.6 1,-1.6 2.5,-1.6 5.1,0 23.9,0 36.4,0 -0.2,2.7 -0.2,5.4 -0.6,8.1 -1.1,7.2 -3.8,13.8 -8.2,19.6 -7.2,9.5 -16.6,15.4 -28.5,17 -9.8,1.3 -18.9,-0.6 -26.9,-6.6 -7.4,-5.6 -11.6,-13 -12.7,-22.2 -1.3,-10.9 1.9,-20.7 8.5,-29.3 7.1,-9.3 16.5,-15.2 28,-17.3 9.4,-1.7 18.4,-0.6 26.5,4.9 5.3,3.5 9.1,8.3 11.6,14.1 0.6,0.9 0.2,1.4 -1,1.7 z"
   id="path9" />
				</g>
				<g
   id="g11">
					<path
   class="st4"
   d="m 186.2,154.6 c -9.1,-0.2 -17.4,-2.8 -24.4,-8.8 -5.9,-5.1 -9.6,-11.6 -10.8,-19.3 -1.8,-11.3 1.3,-21.3 8.1,-30.2 7.3,-9.6 16.1,-14.6 28,-16.7 10.2,-1.8 19.8,-0.8 28.5,5.1 7.9,5.4 12.8,12.7 14.1,22.3 1.7,13.5 -2.2,24.5 -11.5,33.9 -6.6,6.7 -14.7,10.9 -24,12.8 -2.7,0.5 -5.4,0.6 -8,0.9 z M 210,114.2 c -0.1,-1.3 -0.1,-2.3 -0.3,-3.3 -1.8,-9.9 -10.9,-15.5 -20.4,-13.3 -9.3,2.1 -15.3,8 -17.5,17.4 -1.8,7.8 2,15.7 9.2,18.9 5.5,2.4 11,2.1 16.3,-0.6 7.9,-4.1 12.2,-10.5 12.7,-19.1 z"
   id="path10" />
				</g>
			</g>
		</g>
	</g>
</g><text
     xml:space="preserve"
     style="font-style:italic;font-size:8.46667px;font-family:'Monotype Corsiva';-inkscape-font-specification:'Monotype Corsiva Italic';text-align:start;writing-mode:lr-tb;direction:ltr;text-anchor:start;fill:#dc231e;fill-opacity:1;stroke-width:0.264583"
     x="19.97241"
     y="10.351789"
     id="text1"><tspan
       sodipodi:role="line"
       id="tspan1"
       style="font-style:normal;font-variant:normal;font-weight:normal;font-stretch:normal;font-size:8.46667px;font-family:HGPSoeiKakupoptai;-inkscape-font-specification:'HGPSoeiKakupoptai, Normal';font-variant-ligatures:normal;font-variant-caps:normal;font-variant-numeric:normal;font-variant-east-asian:normal;fill:#dc231e;fill-opacity:1;stroke-width:0.264583"
       x="19.97241"
       y="10.351789">♥</tspan></text></svg>
