<?xml version="1.0" standalone="no"?>
<svg xmlns="http://www.w3.org/2000/svg" width="500" height="500"><defs><clipPath id="clip-path-dot-color"><path d="M 19 159v 14h 14v -7a 7 7, 0, 0, 0, -7 -7" transform="rotate(-90,26,166)"/><rect x="19" y="173" width="14" height="14" transform="rotate(0,26,180)"/><path d="M 19 187v 14h 7a 7 7, 0, 0, 0, 0 -14" transform="rotate(90,26,194)"/><circle cx="26" cy="236" r="7" transform="rotate(0,26,236)"/><path d="M 19 271v 14h 7a 7 7, 0, 0, 0, 0 -14" transform="rotate(-90,26,278)"/><rect x="19" y="285" width="14" height="14" transform="rotate(0,26,292)"/><rect x="19" y="299" width="14" height="14" transform="rotate(0,26,306)"/><path d="M 19 313v 14h 7a 7 7, 0, 0, 0, 0 -14" transform="rotate(90,26,320)"/><path d="M 19 341v 14h 7a 7 7, 0, 0, 0, 0 -14" transform="rotate(180,26,348)"/><path d="M 33 131v 14h 7a 7 7, 0, 0, 0, 0 -14" transform="rotate(180,40,138)"/><rect x="33" y="159" width="14" height="14" transform="rotate(0,40,166)"/><path d="M 33 173v 14h 14v -7a 7 7, 0, 0, 0, -7 -7" transform="rotate(90,40,180)"/><path d="M 33 201v 14h 7a 7 7, 0, 0, 0, 0 -14" transform="rotate(180,40,208)"/><circle cx="40" cy="264" r="7" transform="rotate(0,40,264)"/><path d="M 33 341v 14h 14v -7a 7 7, 0, 0, 0, -7 -7" transform="rotate(0,40,348)"/><path d="M 33 355v 14h 14v -7a 7 7, 0, 0, 0, -7 -7" transform="rotate(180,40,362)"/><path d="M 47 131v 14h 14v -7a 7 7, 0, 0, 0, -7 -7" transform="rotate(0,54,138)"/><rect x="47" y="145" width="14" height="14" transform="rotate(0,54,152)"/><path d="M 47 159v 14h 14v -7a 7 7, 0, 0, 0, -7 -7" transform="rotate(90,54,166)"/><path d="M 47 187v 14h 7a 7 7, 0, 0, 0, 0 -14" transform="rotate(-90,54,194)"/><rect x="47" y="201" width="14" height="14" transform="rotate(0,54,208)"/><path d="M 47 215v 14h 14v -7a 7 7, 0, 0, 0, -7 -7" transform="rotate(180,54,222)"/><circle cx="54" cy="250" r="7" transform="rotate(0,54,250)"/><path d="M 47 271v 14h 14v -7a 7 7, 0, 0, 0, -7 -7" transform="rotate(-90,54,278)"/><path d="M 47 285v 14h 14v -7a 7 7, 0, 0, 0, -7 -7" transform="rotate(180,54,292)"/><rect x="47" y="355" width="14" height="14" transform="rotate(0,54,362)"/><rect x="61" y="201" width="14" height="14" transform="rotate(0,68,208)"/><path d="M 61 215v 14h 14v -7a 7 7, 0, 0, 0, -7 -7" transform="rotate(90,68,222)"/><rect x="61" y="271" width="14" height="14" transform="rotate(0,68,278)"/><path d="M 61 285v 14h 14v -7a 7 7, 0, 0, 0, -7 -7" transform="rotate(90,68,292)"/><circle cx="68" cy="320" r="7" transform="rotate(0,68,320)"/><rect x="61" y="355" width="14" height="14" transform="rotate(0,68,362)"/><circle cx="82" cy="166" r="7" transform="rotate(0,82,166)"/><rect x="75" y="201" width="14" height="14" transform="rotate(0,82,208)"/><rect x="75" y="271" width="14" height="14" transform="rotate(0,82,278)"/><path d="M 75 327v 14h 14v -7a 7 7, 0, 0, 0, -7 -7" transform="rotate(-90,82,334)"/><rect x="75" y="341" width="14" height="14" transform="rotate(0,82,348)"/><path d="M 75 355v 14h 14v -7a 7 7, 0, 0, 0, -7 -7" transform="rotate(90,82,362)"/><circle cx="96" cy="152" r="7" transform="rotate(0,96,152)"/><path d="M 89 173v 14h 7a 7 7, 0, 0, 0, 0 -14" transform="rotate(-90,96,180)"/><rect x="89" y="187" width="14" height="14" transform="rotate(0,96,194)"/><rect x="89" y="201" width="14" height="14" transform="rotate(0,96,208)"/><rect x="89" y="215" width="14" height="14" transform="rotate(0,96,222)"/><rect x="89" y="229" width="14" height="14" transform="rotate(0,96,236)"/><path d="M 89 243v 14h 14v -7a 7 7, 0, 0, 0, -7 -7" transform="rotate(180,96,250)"/><rect x="89" y="271" width="14" height="14" transform="rotate(0,96,278)"/><path d="M 89 313v 14h 7a 7 7, 0, 0, 0, 0 -14" transform="rotate(-90,96,320)"/><rect x="89" y="327" width="14" height="14" transform="rotate(0,96,334)"/><path d="M 89 341v 14h 14v -7a 7 7, 0, 0, 0, -7 -7" transform="rotate(90,96,348)"/><circle cx="110" cy="138" r="7" transform="rotate(0,110,138)"/><circle cx="110" cy="166" r="7" transform="rotate(0,110,166)"/><rect x="103" y="187" width="14" height="14" transform="rotate(0,110,194)"/><path d="M 103 215v 14h 7a 7 7, 0, 0, 0, 0 -14" transform="rotate(0,110,222)"/><path d="M 103 243v 14h 7a 7 7, 0, 0, 0, 0 -14" transform="rotate(0,110,250)"/><path d="M 103 271v 14h 7a 7 7, 0, 0, 0, 0 -14" transform="rotate(0,110,278)"/><circle cx="110" cy="306" r="7" transform="rotate(0,110,306)"/><path d="M 103 327v 14h 7a 7 7, 0, 0, 0, 0 -14" transform="rotate(0,110,334)"/><path d="M 103 355v 14h 7a 7 7, 0, 0, 0, 0 -14" transform="rotate(180,110,362)"/><path d="M 117 173v 14h 14v -7a 7 7, 0, 0, 0, -7 -7" transform="rotate(-90,124,180)"/><rect x="117" y="187" width="14" height="14" transform="rotate(0,124,194)"/><path d="M 117 257v 14h 7a 7 7, 0, 0, 0, 0 -14" transform="rotate(180,124,264)"/><circle cx="124" cy="292" r="7" transform="rotate(0,124,292)"/><rect x="117" y="355" width="14" height="14" transform="rotate(0,124,362)"/><path d="M 131 33v 14h 7a 7 7, 0, 0, 0, 0 -14" transform="rotate(-90,138,40)"/><rect x="131" y="47" width="14" height="14" transform="rotate(0,138,54)"/><path d="M 131 61v 14h 14v -7a 7 7, 0, 0, 0, -7 -7" transform="rotate(180,138,68)"/><path d="M 131 89v 14h 14v -7a 7 7, 0, 0, 0, -7 -7" transform="rotate(-90,138,96)"/><path d="M 131 103v 14h 7a 7 7, 0, 0, 0, 0 -14" transform="rotate(90,138,110)"/><path d="M 131 159v 14h 14v -7a 7 7, 0, 0, 0, -7 -7" transform="rotate(-90,138,166)"/><rect x="131" y="173" width="14" height="14" transform="rotate(0,138,180)"/><path d="M 131 187v 14h 14v -7a 7 7, 0, 0, 0, -7 -7" transform="rotate(90,138,194)"/><path d="M 131 243v 14h 14v -7a 7 7, 0, 0, 0, -7 -7" transform="rotate(-90,138,250)"/><rect x="131" y="257" width="14" height="14" transform="rotate(0,138,264)"/><path d="M 131 271v 14h 14v -7a 7 7, 0, 0, 0, -7 -7" transform="rotate(180,138,278)"/><path d="M 131 313v 14h 7a 7 7, 0, 0, 0, 0 -14" transform="rotate(-90,138,320)"/><rect x="131" y="327" width="14" height="14" transform="rotate(0,138,334)"/><rect x="131" y="341" width="14" height="14" transform="rotate(0,138,348)"/><path d="M 131 355v 14h 14v -7a 7 7, 0, 0, 0, -7 -7" transform="rotate(90,138,362)"/><path d="M 131 439v 14h 14v -7a 7 7, 0, 0, 0, -7 -7" transform="rotate(-90,138,446)"/><path d="M 131 453v 14h 7a 7 7, 0, 0, 0, 0 -14" transform="rotate(90,138,460)"/><circle cx="152" cy="26" r="7" transform="rotate(0,152,26)"/><path d="M 145 61v 14h 7a 7 7, 0, 0, 0, 0 -14" transform="rotate(0,152,68)"/><path d="M 145 89v 14h 7a 7 7, 0, 0, 0, 0 -14" transform="rotate(0,152,96)"/><path d="M 145 117v 14h 7a 7 7, 0, 0, 0, 0 -14" transform="rotate(180,152,124)"/><path d="M 145 145v 14h 14v -7a 7 7, 0, 0, 0, -7 -7" transform="rotate(-90,152,152)"/><rect x="145" y="159" width="14" height="14" transform="rotate(0,152,166)"/><path d="M 145 173v 14h 14v -7a 7 7, 0, 0, 0, -7 -7" transform="rotate(90,152,180)"/><path d="M 145 243v 14h 14v -7a 7 7, 0, 0, 0, -7 -7" transform="rotate(0,152,250)"/><rect x="145" y="257" width="14" height="14" transform="rotate(0,152,264)"/><rect x="145" y="271" width="14" height="14" transform="rotate(0,152,278)"/><rect x="145" y="285" width="14" height="14" transform="rotate(0,152,292)"/><path d="M 145 299v 14h 7a 7 7, 0, 0, 0, 0 -14" transform="rotate(90,152,306)"/><rect x="145" y="341" width="14" height="14" transform="rotate(0,152,348)"/><path d="M 145 383v 14h 7a 7 7, 0, 0, 0, 0 -14" transform="rotate(-90,152,390)"/><path d="M 145 397v 14h 14v -7a 7 7, 0, 0, 0, -7 -7" transform="rotate(180,152,404)"/><path d="M 145 425v 14h 14v -7a 7 7, 0, 0, 0, -7 -7" transform="rotate(-90,152,432)"/><path d="M 145 439v 14h 14v -7a 7 7, 0, 0, 0, -7 -7" transform="rotate(90,152,446)"/><path d="M 145 467v 14h 7a 7 7, 0, 0, 0, 0 -14" transform="rotate(180,152,474)"/><path d="M 159 47v 14h 7a 7 7, 0, 0, 0, 0 -14" transform="rotate(180,166,54)"/><path d="M 159 103v 14h 7a 7 7, 0, 0, 0, 0 -14" transform="rotate(-90,166,110)"/><path d="M 159 117v 14h 14v -7a 7 7, 0, 0, 0, -7 -7" transform="rotate(90,166,124)"/><rect x="159" y="145" width="14" height="14" transform="rotate(0,166,152)"/><path d="M 159 271v 14h 7a 7 7, 0, 0, 0, 0 -14" transform="rotate(0,166,278)"/><path d="M 159 313v 14h 14v -7a 7 7, 0, 0, 0, -7 -7" transform="rotate(-90,166,320)"/><rect x="159" y="327" width="14" height="14" transform="rotate(0,166,334)"/><path d="M 159 341v 14h 14v -7a 7 7, 0, 0, 0, -7 -7" transform="rotate(90,166,348)"/><rect x="159" y="397" width="14" height="14" transform="rotate(0,166,404)"/><rect x="159" y="411" width="14" height="14" transform="rotate(0,166,418)"/><rect x="159" y="425" width="14" height="14" transform="rotate(0,166,432)"/><path d="M 159 453v 14h 7a 7 7, 0, 0, 0, 0 -14" transform="rotate(-90,166,460)"/><rect x="159" y="467" width="14" height="14" transform="rotate(0,166,474)"/><path d="M 173 47v 14h 14v -7a 7 7, 0, 0, 0, -7 -7" transform="rotate(0,180,54)"/><rect x="173" y="61" width="14" height="14" transform="rotate(0,180,68)"/><rect x="173" y="75" width="14" height="14" transform="rotate(0,180,82)"/><path d="M 173 89v 14h 14v -7a 7 7, 0, 0, 0, -7 -7" transform="rotate(180,180,96)"/><rect x="173" y="145" width="14" height="14" transform="rotate(0,180,152)"/><circle cx="180" cy="180" r="7" transform="rotate(0,180,180)"/><path d="M 173 201v 14h 7a 7 7, 0, 0, 0, 0 -14" transform="rotate(180,180,208)"/><path d="M 173 229v 14h 14v -7a 7 7, 0, 0, 0, -7 -7" transform="rotate(-90,180,236)"/><rect x="173" y="243" width="14" height="14" transform="rotate(0,180,250)"/><path d="M 173 257v 14h 7a 7 7, 0, 0, 0, 0 -14" transform="rotate(90,180,264)"/><circle cx="180" cy="292" r="7" transform="rotate(0,180,292)"/><rect x="173" y="313" width="14" height="14" transform="rotate(0,180,320)"/><rect x="173" y="327" width="14" height="14" transform="rotate(0,180,334)"/><path d="M 173 369v 14h 14v -7a 7 7, 0, 0, 0, -7 -7" transform="rotate(-90,180,376)"/><rect x="173" y="383" width="14" height="14" transform="rotate(0,180,390)"/><rect x="173" y="397" width="14" height="14" transform="rotate(0,180,404)"/><rect x="173" y="425" width="14" height="14" transform="rotate(0,180,432)"/><rect x="173" y="467" width="14" height="14" transform="rotate(0,180,474)"/><path d="M 187 19v 14h 7a 7 7, 0, 0, 0, 0 -14" transform="rotate(180,194,26)"/><path d="M 187 75v 14h 14v -7a 7 7, 0, 0, 0, -7 -7" transform="rotate(0,194,82)"/><rect x="187" y="89" width="14" height="14" transform="rotate(0,194,96)"/><rect x="187" y="103" width="14" height="14" transform="rotate(0,194,110)"/><path d="M 187 117v 14h 7a 7 7, 0, 0, 0, 0 -14" transform="rotate(90,194,124)"/><path d="M 187 145v 14h 14v -7a 7 7, 0, 0, 0, -7 -7" transform="rotate(0,194,152)"/><path d="M 187 159v 14h 7a 7 7, 0, 0, 0, 0 -14" transform="rotate(90,194,166)"/><path d="M 187 187v 14h 7a 7 7, 0, 0, 0, 0 -14" transform="rotate(-90,194,194)"/><rect x="187" y="201" width="14" height="14" transform="rotate(0,194,208)"/><rect x="187" y="229" width="14" height="14" transform="rotate(0,194,236)"/><path d="M 187 299v 14h 14v -7a 7 7, 0, 0, 0, -7 -7" transform="rotate(-90,194,306)"/><rect x="187" y="313" width="14" height="14" transform="rotate(0,194,320)"/><rect x="187" y="327" width="14" height="14" transform="rotate(0,194,334)"/><rect x="187" y="341" width="14" height="14" transform="rotate(0,194,348)"/><rect x="187" y="355" width="14" height="14" transform="rotate(0,194,362)"/><path d="M 187 369v 14h 14v -7a 7 7, 0, 0, 0, -7 -7" transform="rotate(90,194,376)"/><rect x="187" y="397" width="14" height="14" transform="rotate(0,194,404)"/><rect x="187" y="411" width="14" height="14" transform="rotate(0,194,418)"/><path d="M 187 425v 14h 14v -7a 7 7, 0, 0, 0, -7 -7" transform="rotate(90,194,432)"/><path d="M 187 453v 14h 14v -7a 7 7, 0, 0, 0, -7 -7" transform="rotate(-90,194,460)"/><path d="M 187 467v 14h 14v -7a 7 7, 0, 0, 0, -7 -7" transform="rotate(90,194,474)"/><path d="M 201 19v 14h 7a 7 7, 0, 0, 0, 0 -14" transform="rotate(0,208,26)"/><path d="M 201 47v 14h 7a 7 7, 0, 0, 0, 0 -14" transform="rotate(180,208,54)"/><path d="M 201 89v 14h 7a 7 7, 0, 0, 0, 0 -14" transform="rotate(0,208,96)"/><circle cx="208" cy="138" r="7" transform="rotate(0,208,138)"/><rect x="201" y="201" width="14" height="14" transform="rotate(0,208,208)"/><rect x="201" y="229" width="14" height="14" transform="rotate(0,208,236)"/><rect x="201" y="243" width="14" height="14" transform="rotate(0,208,250)"/><path d="M 201 257v 14h 7a 7 7, 0, 0, 0, 0 -14" transform="rotate(90,208,264)"/><rect x="201" y="299" width="14" height="14" transform="rotate(0,208,306)"/><rect x="201" y="313" width="14" height="14" transform="rotate(0,208,320)"/><path d="M 201 341v 14h 7a 7 7, 0, 0, 0, 0 -14" transform="rotate(0,208,348)"/><rect x="201" y="397" width="14" height="14" transform="rotate(0,208,404)"/><path d="M 201 439v 14h 14v -7a 7 7, 0, 0, 0, -7 -7" transform="rotate(-90,208,446)"/><path d="M 201 453v 14h 14v -7a 7 7, 0, 0, 0, -7 -7" transform="rotate(90,208,460)"/><path d="M 215 33v 14h 14v -7a 7 7, 0, 0, 0, -7 -7" transform="rotate(-90,222,40)"/><path d="M 215 47v 14h 14v -7a 7 7, 0, 0, 0, -7 -7" transform="rotate(90,222,54)"/><circle cx="222" cy="82" r="7" transform="rotate(0,222,82)"/><path d="M 215 103v 14h 7a 7 7, 0, 0, 0, 0 -14" transform="rotate(-90,222,110)"/><path d="M 215 117v 14h 14v -7a 7 7, 0, 0, 0, -7 -7" transform="rotate(180,222,124)"/><path d="M 215 145v 14h 14v -7a 7 7, 0, 0, 0, -7 -7" transform="rotate(-90,222,152)"/><path d="M 215 159v 14h 7a 7 7, 0, 0, 0, 0 -14" transform="rotate(90,222,166)"/><path d="M 215 187v 14h 14v -7a 7 7, 0, 0, 0, -7 -7" transform="rotate(-90,222,194)"/><path d="M 215 201v 14h 14v -7a 7 7, 0, 0, 0, -7 -7" transform="rotate(90,222,208)"/><path d="M 215 229v 14h 7a 7 7, 0, 0, 0, 0 -14" transform="rotate(0,222,236)"/><path d="M 215 271v 14h 14v -7a 7 7, 0, 0, 0, -7 -7" transform="rotate(-90,222,278)"/><rect x="215" y="285" width="14" height="14" transform="rotate(0,222,292)"/><rect x="215" y="299" width="14" height="14" transform="rotate(0,222,306)"/><rect x="215" y="313" width="14" height="14" transform="rotate(0,222,320)"/><path d="M 215 355v 14h 7a 7 7, 0, 0, 0, 0 -14" transform="rotate(180,222,362)"/><path d="M 215 383v 14h 14v -7a 7 7, 0, 0, 0, -7 -7" transform="rotate(-90,222,390)"/><path d="M 215 397v 14h 14v -7a 7 7, 0, 0, 0, -7 -7" transform="rotate(90,222,404)"/><rect x="215" y="439" width="14" height="14" transform="rotate(0,222,446)"/><path d="M 229 19v 14h 14v -7a 7 7, 0, 0, 0, -7 -7" transform="rotate(-90,236,26)"/><rect x="229" y="33" width="14" height="14" transform="rotate(0,236,40)"/><circle cx="236" cy="68" r="7" transform="rotate(0,236,68)"/><rect x="229" y="117" width="14" height="14" transform="rotate(0,236,124)"/><rect x="229" y="131" width="14" height="14" transform="rotate(0,236,138)"/><path d="M 229 145v 14h 14v -7a 7 7, 0, 0, 0, -7 -7" transform="rotate(90,236,152)"/><path d="M 229 187v 14h 7a 7 7, 0, 0, 0, 0 -14" transform="rotate(0,236,194)"/><circle cx="236" cy="222" r="7" transform="rotate(0,236,222)"/><path d="M 229 257v 14h 7a 7 7, 0, 0, 0, 0 -14" transform="rotate(-90,236,264)"/><rect x="229" y="271" width="14" height="14" transform="rotate(0,236,278)"/><rect x="229" y="313" width="14" height="14" transform="rotate(0,236,320)"/><path d="M 229 341v 14h 14v -7a 7 7, 0, 0, 0, -7 -7" transform="rotate(-90,236,348)"/><rect x="229" y="355" width="14" height="14" transform="rotate(0,236,362)"/><rect x="229" y="369" width="14" height="14" transform="rotate(0,236,376)"/><rect x="229" y="383" width="14" height="14" transform="rotate(0,236,390)"/><path d="M 229 411v 14h 7a 7 7, 0, 0, 0, 0 -14" transform="rotate(180,236,418)"/><rect x="229" y="439" width="14" height="14" transform="rotate(0,236,446)"/><path d="M 243 19v 14h 14v -7a 7 7, 0, 0, 0, -7 -7" transform="rotate(0,250,26)"/><rect x="243" y="33" width="14" height="14" transform="rotate(0,250,40)"/><path d="M 243 47v 14h 7a 7 7, 0, 0, 0, 0 -14" transform="rotate(90,250,54)"/><path d="M 243 103v 14h 7a 7 7, 0, 0, 0, 0 -14" transform="rotate(-90,250,110)"/><path d="M 243 117v 14h 14v -7a 7 7, 0, 0, 0, -7 -7" transform="rotate(90,250,124)"/><path d="M 243 173v 14h 7a 7 7, 0, 0, 0, 0 -14" transform="rotate(180,250,180)"/><circle cx="250" cy="250" r="7" transform="rotate(0,250,250)"/><path d="M 243 271v 14h 7a 7 7, 0, 0, 0, 0 -14" transform="rotate(0,250,278)"/><path d="M 243 299v 14h 14v -7a 7 7, 0, 0, 0, -7 -7" transform="rotate(-90,250,306)"/><rect x="243" y="313" width="14" height="14" transform="rotate(0,250,320)"/><rect x="243" y="327" width="14" height="14" transform="rotate(0,250,334)"/><rect x="243" y="341" width="14" height="14" transform="rotate(0,250,348)"/><rect x="243" y="369" width="14" height="14" transform="rotate(0,250,376)"/><rect x="243" y="383" width="14" height="14" transform="rotate(0,250,390)"/><rect x="243" y="411" width="14" height="14" transform="rotate(0,250,418)"/><rect x="243" y="425" width="14" height="14" transform="rotate(0,250,432)"/><path d="M 243 439v 14h 14v -7a 7 7, 0, 0, 0, -7 -7" transform="rotate(90,250,446)"/><path d="M 257 61v 14h 7a 7 7, 0, 0, 0, 0 -14" transform="rotate(180,264,68)"/><circle cx="264" cy="96" r="7" transform="rotate(0,264,96)"/><path d="M 257 159v 14h 7a 7 7, 0, 0, 0, 0 -14" transform="rotate(-90,264,166)"/><rect x="257" y="173" width="14" height="14" transform="rotate(0,264,180)"/><rect x="257" y="187" width="14" height="14" transform="rotate(0,264,194)"/><path d="M 257 201v 14h 7a 7 7, 0, 0, 0, 0 -14" transform="rotate(90,264,208)"/><rect x="257" y="299" width="14" height="14" transform="rotate(0,264,306)"/><path d="M 257 327v 14h 14v -7a 7 7, 0, 0, 0, -7 -7" transform="rotate(0,264,334)"/><rect x="257" y="341" width="14" height="14" transform="rotate(0,264,348)"/><rect x="257" y="355" width="14" height="14" transform="rotate(0,264,362)"/><rect x="257" y="369" width="14" height="14" transform="rotate(0,264,376)"/><path d="M 257 383v 14h 14v -7a 7 7, 0, 0, 0, -7 -7" transform="rotate(90,264,390)"/><rect x="257" y="411" width="14" height="14" transform="rotate(0,264,418)"/><path d="M 257 425v 14h 14v -7a 7 7, 0, 0, 0, -7 -7" transform="rotate(90,264,432)"/><path d="M 257 453v 14h 14v -7a 7 7, 0, 0, 0, -7 -7" transform="rotate(-90,264,460)"/><path d="M 257 467v 14h 7a 7 7, 0, 0, 0, 0 -14" transform="rotate(90,264,474)"/><path d="M 271 47v 14h 7a 7 7, 0, 0, 0, 0 -14" transform="rotate(-90,278,54)"/><rect x="271" y="61" width="14" height="14" transform="rotate(0,278,68)"/><path d="M 271 75v 14h 7a 7 7, 0, 0, 0, 0 -14" transform="rotate(90,278,82)"/><circle cx="278" cy="110" r="7" transform="rotate(0,278,110)"/><path d="M 271 131v 14h 7a 7 7, 0, 0, 0, 0 -14" transform="rotate(180,278,138)"/><path d="M 271 257v 14h 7a 7 7, 0, 0, 0, 0 -14" transform="rotate(180,278,264)"/><path d="M 271 299v 14h 14v -7a 7 7, 0, 0, 0, -7 -7" transform="rotate(0,278,306)"/><path d="M 271 313v 14h 7a 7 7, 0, 0, 0, 0 -14" transform="rotate(90,278,320)"/><rect x="271" y="355" width="14" height="14" transform="rotate(0,278,362)"/><rect x="271" y="369" width="14" height="14" transform="rotate(0,278,376)"/><path d="M 271 397v 14h 7a 7 7, 0, 0, 0, 0 -14" transform="rotate(-90,278,404)"/><rect x="271" y="411" width="14" height="14" transform="rotate(0,278,418)"/><path d="M 271 439v 14h 7a 7 7, 0, 0, 0, 0 -14" transform="rotate(-90,278,446)"/><path d="M 271 453v 14h 14v -7a 7 7, 0, 0, 0, -7 -7" transform="rotate(90,278,460)"/><path d="M 285 19v 14h 14v -7a 7 7, 0, 0, 0, -7 -7" transform="rotate(-90,292,26)"/><path d="M 285 33v 14h 7a 7 7, 0, 0, 0, 0 -14" transform="rotate(90,292,40)"/><circle cx="292" cy="96" r="7" transform="rotate(0,292,96)"/><rect x="285" y="131" width="14" height="14" transform="rotate(0,292,138)"/><circle cx="292" cy="180" r="7" transform="rotate(0,292,180)"/><path d="M 285 201v 14h 7a 7 7, 0, 0, 0, 0 -14" transform="rotate(180,292,208)"/><path d="M 285 229v 14h 7a 7 7, 0, 0, 0, 0 -14" transform="rotate(-90,292,236)"/><rect x="285" y="243" width="14" height="14" transform="rotate(0,292,250)"/><rect x="285" y="257" width="14" height="14" transform="rotate(0,292,264)"/><rect x="285" y="271" width="14" height="14" transform="rotate(0,292,278)"/><path d="M 285 285v 14h 7a 7 7, 0, 0, 0, 0 -14" transform="rotate(90,292,292)"/><path d="M 285 327v 14h 14v -7a 7 7, 0, 0, 0, -7 -7" transform="rotate(-90,292,334)"/><rect x="285" y="341" width="14" height="14" transform="rotate(0,292,348)"/><rect x="285" y="355" width="14" height="14" transform="rotate(0,292,362)"/><rect x="285" y="369" width="14" height="14" transform="rotate(0,292,376)"/><path d="M 285 383v 14h 7a 7 7, 0, 0, 0, 0 -14" transform="rotate(90,292,390)"/><path d="M 285 411v 14h 7a 7 7, 0, 0, 0, 0 -14" transform="rotate(0,292,418)"/><rect x="299" y="19" width="14" height="14" transform="rotate(0,306,26)"/><circle cx="306" cy="54" r="7" transform="rotate(0,306,54)"/><path d="M 299 75v 14h 7a 7 7, 0, 0, 0, 0 -14" transform="rotate(180,306,82)"/><path d="M 299 103v 14h 7a 7 7, 0, 0, 0, 0 -14" transform="rotate(-90,306,110)"/><rect x="299" y="117" width="14" height="14" transform="rotate(0,306,124)"/><rect x="299" y="131" width="14" height="14" transform="rotate(0,306,138)"/><circle cx="306" cy="166" r="7" transform="rotate(0,306,166)"/><path d="M 299 201v 14h 7a 7 7, 0, 0, 0, 0 -14" transform="rotate(0,306,208)"/><rect x="299" y="243" width="14" height="14" transform="rotate(0,306,250)"/><rect x="299" y="257" width="14" height="14" transform="rotate(0,306,264)"/><rect x="299" y="271" width="14" height="14" transform="rotate(0,306,278)"/><rect x="299" y="327" width="14" height="14" transform="rotate(0,306,334)"/><path d="M 299 355v 14h 7a 7 7, 0, 0, 0, 0 -14" transform="rotate(0,306,362)"/><path d="M 299 425v 14h 14v -7a 7 7, 0, 0, 0, -7 -7" transform="rotate(-90,306,432)"/><rect x="299" y="439" width="14" height="14" transform="rotate(0,306,446)"/><path d="M 299 453v 14h 7a 7 7, 0, 0, 0, 0 -14" transform="rotate(90,306,460)"/><path d="M 313 19v 14h 7a 7 7, 0, 0, 0, 0 -14" transform="rotate(0,320,26)"/><path d="M 313 61v 14h 14v -7a 7 7, 0, 0, 0, -7 -7" transform="rotate(-90,320,68)"/><rect x="313" y="75" width="14" height="14" transform="rotate(0,320,82)"/><path d="M 313 131v 14h 14v -7a 7 7, 0, 0, 0, -7 -7" transform="rotate(0,320,138)"/><path d="M 313 145v 14h 14v -7a 7 7, 0, 0, 0, -7 -7" transform="rotate(180,320,152)"/><circle cx="320" cy="194" r="7" transform="rotate(0,320,194)"/><path d="M 313 215v 14h 14v -7a 7 7, 0, 0, 0, -7 -7" transform="rotate(-90,320,222)"/><rect x="313" y="229" width="14" height="14" transform="rotate(0,320,236)"/><rect x="313" y="243" width="14" height="14" transform="rotate(0,320,250)"/><rect x="313" y="271" width="14" height="14" transform="rotate(0,320,278)"/><path d="M 313 299v 14h 14v -7a 7 7, 0, 0, 0, -7 -7" transform="rotate(-90,320,306)"/><rect x="313" y="313" width="14" height="14" transform="rotate(0,320,320)"/><rect x="313" y="327" width="14" height="14" transform="rotate(0,320,334)"/><path d="M 313 341v 14h 14v -7a 7 7, 0, 0, 0, -7 -7" transform="rotate(180,320,348)"/><path d="M 313 383v 14h 7a 7 7, 0, 0, 0, 0 -14" transform="rotate(180,320,390)"/><path d="M 313 425v 14h 7a 7 7, 0, 0, 0, 0 -14" transform="rotate(0,320,432)"/><path d="M 313 467v 14h 7a 7 7, 0, 0, 0, 0 -14" transform="rotate(180,320,474)"/><path d="M 327 47v 14h 14v -7a 7 7, 0, 0, 0, -7 -7" transform="rotate(-90,334,54)"/><rect x="327" y="61" width="14" height="14" transform="rotate(0,334,68)"/><rect x="327" y="75" width="14" height="14" transform="rotate(0,334,82)"/><rect x="327" y="89" width="14" height="14" transform="rotate(0,334,96)"/><rect x="327" y="103" width="14" height="14" transform="rotate(0,334,110)"/><path d="M 327 117v 14h 7a 7 7, 0, 0, 0, 0 -14" transform="rotate(90,334,124)"/><rect x="327" y="145" width="14" height="14" transform="rotate(0,334,152)"/><path d="M 327 173v 14h 7a 7 7, 0, 0, 0, 0 -14" transform="rotate(180,334,180)"/><path d="M 327 201v 14h 14v -7a 7 7, 0, 0, 0, -7 -7" transform="rotate(-90,334,208)"/><path d="M 327 215v 14h 14v -7a 7 7, 0, 0, 0, -7 -7" transform="rotate(90,334,222)"/><path d="M 327 243v 14h 14v -7a 7 7, 0, 0, 0, -7 -7" transform="rotate(0,334,250)"/><rect x="327" y="257" width="14" height="14" transform="rotate(0,334,264)"/><rect x="327" y="271" width="14" height="14" transform="rotate(0,334,278)"/><rect x="327" y="285" width="14" height="14" transform="rotate(0,334,292)"/><rect x="327" y="299" width="14" height="14" transform="rotate(0,334,306)"/><path d="M 327 313v 14h 14v -7a 7 7, 0, 0, 0, -7 -7" transform="rotate(90,334,320)"/><path d="M 327 341v 14h 7a 7 7, 0, 0, 0, 0 -14" transform="rotate(0,334,348)"/><path d="M 327 369v 14h 7a 7 7, 0, 0, 0, 0 -14" transform="rotate(-90,334,376)"/><rect x="327" y="383" width="14" height="14" transform="rotate(0,334,390)"/><path d="M 327 411v 14h 7a 7 7, 0, 0, 0, 0 -14" transform="rotate(180,334,418)"/><path d="M 327 453v 14h 7a 7 7, 0, 0, 0, 0 -14" transform="rotate(-90,334,460)"/><rect x="327" y="467" width="14" height="14" transform="rotate(0,334,474)"/><path d="M 341 33v 14h 7a 7 7, 0, 0, 0, 0 -14" transform="rotate(-90,348,40)"/><rect x="341" y="47" width="14" height="14" transform="rotate(0,348,54)"/><rect x="341" y="75" width="14" height="14" transform="rotate(0,348,82)"/><path d="M 341 89v 14h 14v -7a 7 7, 0, 0, 0, -7 -7" transform="rotate(90,348,96)"/><path d="M 341 131v 14h 14v -7a 7 7, 0, 0, 0, -7 -7" transform="rotate(-90,348,138)"/><path d="M 341 145v 14h 14v -7a 7 7, 0, 0, 0, -7 -7" transform="rotate(90,348,152)"/><path d="M 341 173v 14h 7a 7 7, 0, 0, 0, 0 -14" transform="rotate(0,348,180)"/><rect x="341" y="201" width="14" height="14" transform="rotate(0,348,208)"/><circle cx="348" cy="236" r="7" transform="rotate(0,348,236)"/><path d="M 341 299v 14h 7a 7 7, 0, 0, 0, 0 -14" transform="rotate(0,348,306)"/><path d="M 341 355v 14h 7a 7 7, 0, 0, 0, 0 -14" transform="rotate(180,348,362)"/><rect x="341" y="383" width="14" height="14" transform="rotate(0,348,390)"/><rect x="341" y="411" width="14" height="14" transform="rotate(0,348,418)"/><path d="M 341 425v 14h 14v -7a 7 7, 0, 0, 0, -7 -7" transform="rotate(180,348,432)"/><path d="M 341 467v 14h 7a 7 7, 0, 0, 0, 0 -14" transform="rotate(0,348,474)"/><circle cx="362" cy="26" r="7" transform="rotate(0,362,26)"/><path d="M 355 47v 14h 7a 7 7, 0, 0, 0, 0 -14" transform="rotate(0,362,54)"/><path d="M 355 75v 14h 7a 7 7, 0, 0, 0, 0 -14" transform="rotate(0,362,82)"/><circle cx="362" cy="110" r="7" transform="rotate(0,362,110)"/><rect x="355" y="131" width="14" height="14" transform="rotate(0,362,138)"/><path d="M 355 201v 14h 7a 7 7, 0, 0, 0, 0 -14" transform="rotate(0,362,208)"/><path d="M 355 271v 14h 7a 7 7, 0, 0, 0, 0 -14" transform="rotate(-90,362,278)"/><path d="M 355 285v 14h 14v -7a 7 7, 0, 0, 0, -7 -7" transform="rotate(180,362,292)"/><circle cx="362" cy="334" r="7" transform="rotate(0,362,334)"/><rect x="355" y="355" width="14" height="14" transform="rotate(0,362,362)"/><rect x="355" y="369" width="14" height="14" transform="rotate(0,362,376)"/><rect x="355" y="383" width="14" height="14" transform="rotate(0,362,390)"/><rect x="355" y="397" width="14" height="14" transform="rotate(0,362,404)"/><rect x="355" y="411" width="14" height="14" transform="rotate(0,362,418)"/><rect x="355" y="425" width="14" height="14" transform="rotate(0,362,432)"/><path d="M 369 131v 14h 7a 7 7, 0, 0, 0, 0 -14" transform="rotate(0,376,138)"/><path d="M 369 159v 14h 7a 7 7, 0, 0, 0, 0 -14" transform="rotate(180,376,166)"/><path d="M 369 229v 14h 7a 7 7, 0, 0, 0, 0 -14" transform="rotate(-90,376,236)"/><path d="M 369 243v 14h 14v -7a 7 7, 0, 0, 0, -7 -7" transform="rotate(180,376,250)"/><rect x="369" y="285" width="14" height="14" transform="rotate(0,376,292)"/><rect x="369" y="299" width="14" height="14" transform="rotate(0,376,306)"/><path d="M 369 313v 14h 14v -7a 7 7, 0, 0, 0, -7 -7" transform="rotate(180,376,320)"/><rect x="369" y="355" width="14" height="14" transform="rotate(0,376,362)"/><rect x="369" y="411" width="14" height="14" transform="rotate(0,376,418)"/><path d="M 369 425v 14h 14v -7a 7 7, 0, 0, 0, -7 -7" transform="rotate(90,376,432)"/><circle cx="376" cy="460" r="7" transform="rotate(0,376,460)"/><rect x="383" y="159" width="14" height="14" transform="rotate(0,390,166)"/><rect x="383" y="173" width="14" height="14" transform="rotate(0,390,180)"/><rect x="383" y="187" width="14" height="14" transform="rotate(0,390,194)"/><rect x="383" y="201" width="14" height="14" transform="rotate(0,390,208)"/><path d="M 383 215v 14h 14v -7a 7 7, 0, 0, 0, -7 -7" transform="rotate(180,390,222)"/><rect x="383" y="243" width="14" height="14" transform="rotate(0,390,250)"/><path d="M 383 271v 14h 7a 7 7, 0, 0, 0, 0 -14" transform="rotate(-90,390,278)"/><rect x="383" y="285" width="14" height="14" transform="rotate(0,390,292)"/><rect x="383" y="299" width="14" height="14" transform="rotate(0,390,306)"/><path d="M 383 313v 14h 14v -7a 7 7, 0, 0, 0, -7 -7" transform="rotate(90,390,320)"/><path d="M 383 341v 14h 14v -7a 7 7, 0, 0, 0, -7 -7" transform="rotate(-90,390,348)"/><rect x="383" y="355" width="14" height="14" transform="rotate(0,390,362)"/><circle cx="390" cy="390" r="7" transform="rotate(0,390,390)"/><rect x="383" y="411" width="14" height="14" transform="rotate(0,390,418)"/><path d="M 397 131v 14h 7a 7 7, 0, 0, 0, 0 -14" transform="rotate(-90,404,138)"/><rect x="397" y="145" width="14" height="14" transform="rotate(0,404,152)"/><rect x="397" y="159" width="14" height="14" transform="rotate(0,404,166)"/><rect x="397" y="215" width="14" height="14" transform="rotate(0,404,222)"/><rect x="397" y="243" width="14" height="14" transform="rotate(0,404,250)"/><path d="M 397 257v 14h 7a 7 7, 0, 0, 0, 0 -14" transform="rotate(90,404,264)"/><path d="M 397 299v 14h 7a 7 7, 0, 0, 0, 0 -14" transform="rotate(0,404,306)"/><rect x="397" y="341" width="14" height="14" transform="rotate(0,404,348)"/><rect x="397" y="355" width="14" height="14" transform="rotate(0,404,362)"/><rect x="397" y="411" width="14" height="14" transform="rotate(0,404,418)"/><rect x="397" y="425" width="14" height="14" transform="rotate(0,404,432)"/><rect x="397" y="439" width="14" height="14" transform="rotate(0,404,446)"/><path d="M 397 453v 14h 14v -7a 7 7, 0, 0, 0, -7 -7" transform="rotate(180,404,460)"/><rect x="411" y="145" width="14" height="14" transform="rotate(0,418,152)"/><rect x="411" y="159" width="14" height="14" transform="rotate(0,418,166)"/><path d="M 411 173v 14h 14v -7a 7 7, 0, 0, 0, -7 -7" transform="rotate(180,418,180)"/><rect x="411" y="215" width="14" height="14" transform="rotate(0,418,222)"/><path d="M 411 243v 14h 7a 7 7, 0, 0, 0, 0 -14" transform="rotate(0,418,250)"/><path d="M 411 271v 14h 14v -7a 7 7, 0, 0, 0, -7 -7" transform="rotate(-90,418,278)"/><path d="M 411 285v 14h 14v -7a 7 7, 0, 0, 0, -7 -7" transform="rotate(180,418,292)"/><path d="M 411 327v 14h 14v -7a 7 7, 0, 0, 0, -7 -7" transform="rotate(-90,418,334)"/><rect x="411" y="341" width="14" height="14" transform="rotate(0,418,348)"/><rect x="411" y="355" width="14" height="14" transform="rotate(0,418,362)"/><rect x="411" y="369" width="14" height="14" transform="rotate(0,418,376)"/><rect x="411" y="383" width="14" height="14" transform="rotate(0,418,390)"/><rect x="411" y="397" width="14" height="14" transform="rotate(0,418,404)"/><path d="M 411 411v 14h 14v -7a 7 7, 0, 0, 0, -7 -7" transform="rotate(90,418,418)"/><path d="M 411 439v 14h 14v -7a 7 7, 0, 0, 0, -7 -7" transform="rotate(0,418,446)"/><rect x="411" y="453" width="14" height="14" transform="rotate(0,418,460)"/><path d="M 411 467v 14h 14v -7a 7 7, 0, 0, 0, -7 -7" transform="rotate(180,418,474)"/><path d="M 425 131v 14h 14v -7a 7 7, 0, 0, 0, -7 -7" transform="rotate(-90,432,138)"/><rect x="425" y="145" width="14" height="14" transform="rotate(0,432,152)"/><rect x="425" y="159" width="14" height="14" transform="rotate(0,432,166)"/><path d="M 425 173v 14h 14v -7a 7 7, 0, 0, 0, -7 -7" transform="rotate(90,432,180)"/><path d="M 425 215v 14h 7a 7 7, 0, 0, 0, 0 -14" transform="rotate(0,432,222)"/><path d="M 425 257v 14h 14v -7a 7 7, 0, 0, 0, -7 -7" transform="rotate(-90,432,264)"/><rect x="425" y="271" width="14" height="14" transform="rotate(0,432,278)"/><path d="M 425 285v 14h 14v -7a 7 7, 0, 0, 0, -7 -7" transform="rotate(90,432,292)"/><path d="M 425 313v 14h 7a 7 7, 0, 0, 0, 0 -14" transform="rotate(-90,432,320)"/><rect x="425" y="327" width="14" height="14" transform="rotate(0,432,334)"/><path d="M 425 341v 14h 14v -7a 7 7, 0, 0, 0, -7 -7" transform="rotate(90,432,348)"/><rect x="425" y="397" width="14" height="14" transform="rotate(0,432,404)"/><path d="M 425 453v 14h 14v -7a 7 7, 0, 0, 0, -7 -7" transform="rotate(0,432,460)"/><path d="M 425 467v 14h 14v -7a 7 7, 0, 0, 0, -7 -7" transform="rotate(90,432,474)"/><rect x="439" y="131" width="14" height="14" transform="rotate(0,446,138)"/><path d="M 439 187v 14h 14v -7a 7 7, 0, 0, 0, -7 -7" transform="rotate(-90,446,194)"/><path d="M 439 201v 14h 14v -7a 7 7, 0, 0, 0, -7 -7" transform="rotate(180,446,208)"/><circle cx="446" cy="236" r="7" transform="rotate(0,446,236)"/><rect x="439" y="257" width="14" height="14" transform="rotate(0,446,264)"/><path d="M 439 271v 14h 14v -7a 7 7, 0, 0, 0, -7 -7" transform="rotate(90,446,278)"/><path d="M 439 299v 14h 7a 7 7, 0, 0, 0, 0 -14" transform="rotate(180,446,306)"/><rect x="439" y="327" width="14" height="14" transform="rotate(0,446,334)"/><path d="M 439 383v 14h 14v -7a 7 7, 0, 0, 0, -7 -7" transform="rotate(-90,446,390)"/><rect x="439" y="397" width="14" height="14" transform="rotate(0,446,404)"/><circle cx="446" cy="446" r="7" transform="rotate(0,446,446)"/><path d="M 453 131v 14h 7a 7 7, 0, 0, 0, 0 -14" transform="rotate(0,460,138)"/><path d="M 453 159v 14h 7a 7 7, 0, 0, 0, 0 -14" transform="rotate(-90,460,166)"/><rect x="453" y="173" width="14" height="14" transform="rotate(0,460,180)"/><rect x="453" y="187" width="14" height="14" transform="rotate(0,460,194)"/><path d="M 453 201v 14h 14v -7a 7 7, 0, 0, 0, -7 -7" transform="rotate(90,460,208)"/><path d="M 453 243v 14h 7a 7 7, 0, 0, 0, 0 -14" transform="rotate(-90,460,250)"/><rect x="453" y="257" width="14" height="14" transform="rotate(0,460,264)"/><path d="M 453 299v 14h 7a 7 7, 0, 0, 0, 0 -14" transform="rotate(0,460,306)"/><path d="M 453 327v 14h 7a 7 7, 0, 0, 0, 0 -14" transform="rotate(0,460,334)"/><circle cx="460" cy="362" r="7" transform="rotate(0,460,362)"/><rect x="453" y="383" width="14" height="14" transform="rotate(0,460,390)"/><rect x="453" y="397" width="14" height="14" transform="rotate(0,460,404)"/><path d="M 453 411v 14h 14v -7a 7 7, 0, 0, 0, -7 -7" transform="rotate(180,460,418)"/><circle cx="460" cy="474" r="7" transform="rotate(0,460,474)"/><path d="M 467 187v 14h 7a 7 7, 0, 0, 0, 0 -14" transform="rotate(0,474,194)"/><circle cx="474" cy="222" r="7" transform="rotate(0,474,222)"/><path d="M 467 257v 14h 7a 7 7, 0, 0, 0, 0 -14" transform="rotate(0,474,264)"/><circle cx="474" cy="292" r="7" transform="rotate(0,474,292)"/><circle cx="474" cy="320" r="7" transform="rotate(0,474,320)"/><circle cx="474" cy="348" r="7" transform="rotate(0,474,348)"/><path d="M 467 383v 14h 7a 7 7, 0, 0, 0, 0 -14" transform="rotate(0,474,390)"/><path d="M 467 411v 14h 14v -7a 7 7, 0, 0, 0, -7 -7" transform="rotate(0,474,418)"/><rect x="467" y="425" width="14" height="14" transform="rotate(0,474,432)"/><path d="M 467 439v 14h 7a 7 7, 0, 0, 0, 0 -14" transform="rotate(90,474,446)"/></clipPath><clipPath id="clip-path-corners-square-color-0-0"><path clip-rule="evenodd" d="M 19 54v 28a 35 35, 0, 0, 0, 35 35h 28a 35 35, 0, 0, 0, 35 -35v -28a 35 35, 0, 0, 0, -35 -35h -28a 35 35, 0, 0, 0, -35 35M 54 33h 28a 21 21, 0, 0, 1, 21 21v 28a 21 21, 0, 0, 1, -21 21h -28a 21 21, 0, 0, 1, -21 -21v -28a 21 21, 0, 0, 1, 21 -21" transform="rotate(0,68,68)"/></clipPath><clipPath id="clip-path-corners-dot-color-0-0"><circle cx="68" cy="68" r="21" transform="rotate(0,68,68)"/></clipPath><clipPath id="clip-path-corners-square-color-1-0"><path clip-rule="evenodd" d="M 383 54v 28a 35 35, 0, 0, 0, 35 35h 28a 35 35, 0, 0, 0, 35 -35v -28a 35 35, 0, 0, 0, -35 -35h -28a 35 35, 0, 0, 0, -35 35M 418 33h 28a 21 21, 0, 0, 1, 21 21v 28a 21 21, 0, 0, 1, -21 21h -28a 21 21, 0, 0, 1, -21 -21v -28a 21 21, 0, 0, 1, 21 -21" transform="rotate(90,432,68)"/></clipPath><clipPath id="clip-path-corners-dot-color-1-0"><circle cx="432" cy="68" r="21" transform="rotate(90,432,68)"/></clipPath><clipPath id="clip-path-corners-square-color-0-1"><path clip-rule="evenodd" d="M 19 418v 28a 35 35, 0, 0, 0, 35 35h 28a 35 35, 0, 0, 0, 35 -35v -28a 35 35, 0, 0, 0, -35 -35h -28a 35 35, 0, 0, 0, -35 35M 54 397h 28a 21 21, 0, 0, 1, 21 21v 28a 21 21, 0, 0, 1, -21 21h -28a 21 21, 0, 0, 1, -21 -21v -28a 21 21, 0, 0, 1, 21 -21" transform="rotate(-90,68,432)"/></clipPath><clipPath id="clip-path-corners-dot-color-0-1"><circle cx="68" cy="432" r="21" transform="rotate(-90,68,432)"/></clipPath></defs><rect x="0" y="0" height="500" width="500" clip-path="url('#clip-path-background-color')" fill="#fff"/><rect x="0" y="0" height="500" width="500" clip-path="url('#clip-path-dot-color')" fill="#000000"/><rect x="19" y="19" height="98" width="98" clip-path="url('#clip-path-corners-square-color-0-0')" fill="#000000"/><rect x="47" y="47" height="42" width="42" clip-path="url('#clip-path-corners-dot-color-0-0')" fill="#000000"/><rect x="383" y="19" height="98" width="98" clip-path="url('#clip-path-corners-square-color-1-0')" fill="#000000"/><rect x="411" y="47" height="42" width="42" clip-path="url('#clip-path-corners-dot-color-1-0')" fill="#000000"/><rect x="19" y="383" height="98" width="98" clip-path="url('#clip-path-corners-square-color-0-1')" fill="#000000"/><rect x="47" y="411" height="42" width="42" clip-path="url('#clip-path-corners-dot-color-0-1')" fill="#000000"/></svg>