<?xml version="1.0" standalone="no"?>
<svg xmlns="http://www.w3.org/2000/svg" width="500" height="500"><defs><clipPath id="clip-path-dot-color"><circle cx="26" cy="166" r="7" transform="rotate(0,26,166)"/><circle cx="26" cy="180" r="7" transform="rotate(0,26,180)"/><circle cx="26" cy="194" r="7" transform="rotate(0,26,194)"/><circle cx="26" cy="236" r="7" transform="rotate(0,26,236)"/><circle cx="26" cy="278" r="7" transform="rotate(0,26,278)"/><circle cx="26" cy="292" r="7" transform="rotate(0,26,292)"/><circle cx="26" cy="306" r="7" transform="rotate(0,26,306)"/><circle cx="26" cy="320" r="7" transform="rotate(0,26,320)"/><circle cx="26" cy="348" r="7" transform="rotate(0,26,348)"/><circle cx="40" cy="138" r="7" transform="rotate(0,40,138)"/><circle cx="40" cy="166" r="7" transform="rotate(0,40,166)"/><circle cx="40" cy="180" r="7" transform="rotate(0,40,180)"/><circle cx="40" cy="208" r="7" transform="rotate(0,40,208)"/><circle cx="40" cy="264" r="7" transform="rotate(0,40,264)"/><circle cx="40" cy="348" r="7" transform="rotate(0,40,348)"/><circle cx="40" cy="362" r="7" transform="rotate(0,40,362)"/><circle cx="54" cy="138" r="7" transform="rotate(0,54,138)"/><circle cx="54" cy="152" r="7" transform="rotate(0,54,152)"/><circle cx="54" cy="166" r="7" transform="rotate(0,54,166)"/><circle cx="54" cy="194" r="7" transform="rotate(0,54,194)"/><circle cx="54" cy="208" r="7" transform="rotate(0,54,208)"/><circle cx="54" cy="222" r="7" transform="rotate(0,54,222)"/><circle cx="54" cy="250" r="7" transform="rotate(0,54,250)"/><circle cx="54" cy="278" r="7" transform="rotate(0,54,278)"/><circle cx="54" cy="292" r="7" transform="rotate(0,54,292)"/><circle cx="54" cy="362" r="7" transform="rotate(0,54,362)"/><circle cx="68" cy="208" r="7" transform="rotate(0,68,208)"/><circle cx="68" cy="222" r="7" transform="rotate(0,68,222)"/><circle cx="68" cy="278" r="7" transform="rotate(0,68,278)"/><circle cx="68" cy="292" r="7" transform="rotate(0,68,292)"/><circle cx="68" cy="320" r="7" transform="rotate(0,68,320)"/><circle cx="68" cy="362" r="7" transform="rotate(0,68,362)"/><circle cx="82" cy="166" r="7" transform="rotate(0,82,166)"/><circle cx="82" cy="208" r="7" transform="rotate(0,82,208)"/><circle cx="82" cy="278" r="7" transform="rotate(0,82,278)"/><circle cx="82" cy="334" r="7" transform="rotate(0,82,334)"/><circle cx="82" cy="348" r="7" transform="rotate(0,82,348)"/><circle cx="82" cy="362" r="7" transform="rotate(0,82,362)"/><circle cx="96" cy="152" r="7" transform="rotate(0,96,152)"/><circle cx="96" cy="180" r="7" transform="rotate(0,96,180)"/><circle cx="96" cy="194" r="7" transform="rotate(0,96,194)"/><circle cx="96" cy="208" r="7" transform="rotate(0,96,208)"/><circle cx="96" cy="222" r="7" transform="rotate(0,96,222)"/><circle cx="96" cy="236" r="7" transform="rotate(0,96,236)"/><circle cx="96" cy="250" r="7" transform="rotate(0,96,250)"/><circle cx="96" cy="278" r="7" transform="rotate(0,96,278)"/><circle cx="96" cy="320" r="7" transform="rotate(0,96,320)"/><circle cx="96" cy="334" r="7" transform="rotate(0,96,334)"/><circle cx="96" cy="348" r="7" transform="rotate(0,96,348)"/><circle cx="110" cy="138" r="7" transform="rotate(0,110,138)"/><circle cx="110" cy="166" r="7" transform="rotate(0,110,166)"/><circle cx="110" cy="194" r="7" transform="rotate(0,110,194)"/><circle cx="110" cy="222" r="7" transform="rotate(0,110,222)"/><circle cx="110" cy="250" r="7" transform="rotate(0,110,250)"/><circle cx="110" cy="278" r="7" transform="rotate(0,110,278)"/><circle cx="110" cy="306" r="7" transform="rotate(0,110,306)"/><circle cx="110" cy="334" r="7" transform="rotate(0,110,334)"/><circle cx="110" cy="362" r="7" transform="rotate(0,110,362)"/><circle cx="124" cy="180" r="7" transform="rotate(0,124,180)"/><circle cx="124" cy="194" r="7" transform="rotate(0,124,194)"/><circle cx="124" cy="264" r="7" transform="rotate(0,124,264)"/><circle cx="124" cy="292" r="7" transform="rotate(0,124,292)"/><circle cx="124" cy="362" r="7" transform="rotate(0,124,362)"/><circle cx="138" cy="40" r="7" transform="rotate(0,138,40)"/><circle cx="138" cy="54" r="7" transform="rotate(0,138,54)"/><circle cx="138" cy="68" r="7" transform="rotate(0,138,68)"/><circle cx="138" cy="96" r="7" transform="rotate(0,138,96)"/><circle cx="138" cy="110" r="7" transform="rotate(0,138,110)"/><circle cx="138" cy="166" r="7" transform="rotate(0,138,166)"/><circle cx="138" cy="180" r="7" transform="rotate(0,138,180)"/><circle cx="138" cy="194" r="7" transform="rotate(0,138,194)"/><circle cx="138" cy="250" r="7" transform="rotate(0,138,250)"/><circle cx="138" cy="264" r="7" transform="rotate(0,138,264)"/><circle cx="138" cy="278" r="7" transform="rotate(0,138,278)"/><circle cx="138" cy="320" r="7" transform="rotate(0,138,320)"/><circle cx="138" cy="334" r="7" transform="rotate(0,138,334)"/><circle cx="138" cy="348" r="7" transform="rotate(0,138,348)"/><circle cx="138" cy="362" r="7" transform="rotate(0,138,362)"/><circle cx="138" cy="446" r="7" transform="rotate(0,138,446)"/><circle cx="138" cy="460" r="7" transform="rotate(0,138,460)"/><circle cx="152" cy="26" r="7" transform="rotate(0,152,26)"/><circle cx="152" cy="68" r="7" transform="rotate(0,152,68)"/><circle cx="152" cy="96" r="7" transform="rotate(0,152,96)"/><circle cx="152" cy="124" r="7" transform="rotate(0,152,124)"/><circle cx="152" cy="152" r="7" transform="rotate(0,152,152)"/><circle cx="152" cy="166" r="7" transform="rotate(0,152,166)"/><circle cx="152" cy="180" r="7" transform="rotate(0,152,180)"/><circle cx="152" cy="250" r="7" transform="rotate(0,152,250)"/><circle cx="152" cy="264" r="7" transform="rotate(0,152,264)"/><circle cx="152" cy="278" r="7" transform="rotate(0,152,278)"/><circle cx="152" cy="292" r="7" transform="rotate(0,152,292)"/><circle cx="152" cy="306" r="7" transform="rotate(0,152,306)"/><circle cx="152" cy="348" r="7" transform="rotate(0,152,348)"/><circle cx="152" cy="390" r="7" transform="rotate(0,152,390)"/><circle cx="152" cy="404" r="7" transform="rotate(0,152,404)"/><circle cx="152" cy="432" r="7" transform="rotate(0,152,432)"/><circle cx="152" cy="446" r="7" transform="rotate(0,152,446)"/><circle cx="152" cy="474" r="7" transform="rotate(0,152,474)"/><circle cx="166" cy="54" r="7" transform="rotate(0,166,54)"/><circle cx="166" cy="110" r="7" transform="rotate(0,166,110)"/><circle cx="166" cy="124" r="7" transform="rotate(0,166,124)"/><circle cx="166" cy="152" r="7" transform="rotate(0,166,152)"/><circle cx="166" cy="278" r="7" transform="rotate(0,166,278)"/><circle cx="166" cy="320" r="7" transform="rotate(0,166,320)"/><circle cx="166" cy="334" r="7" transform="rotate(0,166,334)"/><circle cx="166" cy="348" r="7" transform="rotate(0,166,348)"/><circle cx="166" cy="404" r="7" transform="rotate(0,166,404)"/><circle cx="166" cy="418" r="7" transform="rotate(0,166,418)"/><circle cx="166" cy="432" r="7" transform="rotate(0,166,432)"/><circle cx="166" cy="460" r="7" transform="rotate(0,166,460)"/><circle cx="166" cy="474" r="7" transform="rotate(0,166,474)"/><circle cx="180" cy="54" r="7" transform="rotate(0,180,54)"/><circle cx="180" cy="68" r="7" transform="rotate(0,180,68)"/><circle cx="180" cy="82" r="7" transform="rotate(0,180,82)"/><circle cx="180" cy="96" r="7" transform="rotate(0,180,96)"/><circle cx="180" cy="152" r="7" transform="rotate(0,180,152)"/><circle cx="180" cy="180" r="7" transform="rotate(0,180,180)"/><circle cx="180" cy="208" r="7" transform="rotate(0,180,208)"/><circle cx="180" cy="236" r="7" transform="rotate(0,180,236)"/><circle cx="180" cy="250" r="7" transform="rotate(0,180,250)"/><circle cx="180" cy="264" r="7" transform="rotate(0,180,264)"/><circle cx="180" cy="292" r="7" transform="rotate(0,180,292)"/><circle cx="180" cy="320" r="7" transform="rotate(0,180,320)"/><circle cx="180" cy="334" r="7" transform="rotate(0,180,334)"/><circle cx="180" cy="376" r="7" transform="rotate(0,180,376)"/><circle cx="180" cy="390" r="7" transform="rotate(0,180,390)"/><circle cx="180" cy="404" r="7" transform="rotate(0,180,404)"/><circle cx="180" cy="432" r="7" transform="rotate(0,180,432)"/><circle cx="180" cy="474" r="7" transform="rotate(0,180,474)"/><circle cx="194" cy="26" r="7" transform="rotate(0,194,26)"/><circle cx="194" cy="82" r="7" transform="rotate(0,194,82)"/><circle cx="194" cy="96" r="7" transform="rotate(0,194,96)"/><circle cx="194" cy="110" r="7" transform="rotate(0,194,110)"/><circle cx="194" cy="124" r="7" transform="rotate(0,194,124)"/><circle cx="194" cy="152" r="7" transform="rotate(0,194,152)"/><circle cx="194" cy="166" r="7" transform="rotate(0,194,166)"/><circle cx="194" cy="194" r="7" transform="rotate(0,194,194)"/><circle cx="194" cy="208" r="7" transform="rotate(0,194,208)"/><circle cx="194" cy="236" r="7" transform="rotate(0,194,236)"/><circle cx="194" cy="306" r="7" transform="rotate(0,194,306)"/><circle cx="194" cy="320" r="7" transform="rotate(0,194,320)"/><circle cx="194" cy="334" r="7" transform="rotate(0,194,334)"/><circle cx="194" cy="348" r="7" transform="rotate(0,194,348)"/><circle cx="194" cy="362" r="7" transform="rotate(0,194,362)"/><circle cx="194" cy="376" r="7" transform="rotate(0,194,376)"/><circle cx="194" cy="404" r="7" transform="rotate(0,194,404)"/><circle cx="194" cy="418" r="7" transform="rotate(0,194,418)"/><circle cx="194" cy="432" r="7" transform="rotate(0,194,432)"/><circle cx="194" cy="460" r="7" transform="rotate(0,194,460)"/><circle cx="194" cy="474" r="7" transform="rotate(0,194,474)"/><circle cx="208" cy="26" r="7" transform="rotate(0,208,26)"/><circle cx="208" cy="54" r="7" transform="rotate(0,208,54)"/><circle cx="208" cy="96" r="7" transform="rotate(0,208,96)"/><circle cx="208" cy="138" r="7" transform="rotate(0,208,138)"/><circle cx="208" cy="208" r="7" transform="rotate(0,208,208)"/><circle cx="208" cy="236" r="7" transform="rotate(0,208,236)"/><circle cx="208" cy="250" r="7" transform="rotate(0,208,250)"/><circle cx="208" cy="264" r="7" transform="rotate(0,208,264)"/><circle cx="208" cy="306" r="7" transform="rotate(0,208,306)"/><circle cx="208" cy="320" r="7" transform="rotate(0,208,320)"/><circle cx="208" cy="348" r="7" transform="rotate(0,208,348)"/><circle cx="208" cy="404" r="7" transform="rotate(0,208,404)"/><circle cx="208" cy="446" r="7" transform="rotate(0,208,446)"/><circle cx="208" cy="460" r="7" transform="rotate(0,208,460)"/><circle cx="222" cy="40" r="7" transform="rotate(0,222,40)"/><circle cx="222" cy="54" r="7" transform="rotate(0,222,54)"/><circle cx="222" cy="82" r="7" transform="rotate(0,222,82)"/><circle cx="222" cy="110" r="7" transform="rotate(0,222,110)"/><circle cx="222" cy="124" r="7" transform="rotate(0,222,124)"/><circle cx="222" cy="152" r="7" transform="rotate(0,222,152)"/><circle cx="222" cy="166" r="7" transform="rotate(0,222,166)"/><circle cx="222" cy="194" r="7" transform="rotate(0,222,194)"/><circle cx="222" cy="208" r="7" transform="rotate(0,222,208)"/><circle cx="222" cy="236" r="7" transform="rotate(0,222,236)"/><circle cx="222" cy="278" r="7" transform="rotate(0,222,278)"/><circle cx="222" cy="292" r="7" transform="rotate(0,222,292)"/><circle cx="222" cy="306" r="7" transform="rotate(0,222,306)"/><circle cx="222" cy="320" r="7" transform="rotate(0,222,320)"/><circle cx="222" cy="362" r="7" transform="rotate(0,222,362)"/><circle cx="222" cy="390" r="7" transform="rotate(0,222,390)"/><circle cx="222" cy="404" r="7" transform="rotate(0,222,404)"/><circle cx="222" cy="446" r="7" transform="rotate(0,222,446)"/><circle cx="236" cy="26" r="7" transform="rotate(0,236,26)"/><circle cx="236" cy="40" r="7" transform="rotate(0,236,40)"/><circle cx="236" cy="68" r="7" transform="rotate(0,236,68)"/><circle cx="236" cy="124" r="7" transform="rotate(0,236,124)"/><circle cx="236" cy="138" r="7" transform="rotate(0,236,138)"/><circle cx="236" cy="152" r="7" transform="rotate(0,236,152)"/><circle cx="236" cy="194" r="7" transform="rotate(0,236,194)"/><circle cx="236" cy="222" r="7" transform="rotate(0,236,222)"/><circle cx="236" cy="264" r="7" transform="rotate(0,236,264)"/><circle cx="236" cy="278" r="7" transform="rotate(0,236,278)"/><circle cx="236" cy="320" r="7" transform="rotate(0,236,320)"/><circle cx="236" cy="348" r="7" transform="rotate(0,236,348)"/><circle cx="236" cy="362" r="7" transform="rotate(0,236,362)"/><circle cx="236" cy="376" r="7" transform="rotate(0,236,376)"/><circle cx="236" cy="390" r="7" transform="rotate(0,236,390)"/><circle cx="236" cy="418" r="7" transform="rotate(0,236,418)"/><circle cx="236" cy="446" r="7" transform="rotate(0,236,446)"/><circle cx="250" cy="26" r="7" transform="rotate(0,250,26)"/><circle cx="250" cy="40" r="7" transform="rotate(0,250,40)"/><circle cx="250" cy="54" r="7" transform="rotate(0,250,54)"/><circle cx="250" cy="110" r="7" transform="rotate(0,250,110)"/><circle cx="250" cy="124" r="7" transform="rotate(0,250,124)"/><circle cx="250" cy="180" r="7" transform="rotate(0,250,180)"/><circle cx="250" cy="250" r="7" transform="rotate(0,250,250)"/><circle cx="250" cy="278" r="7" transform="rotate(0,250,278)"/><circle cx="250" cy="306" r="7" transform="rotate(0,250,306)"/><circle cx="250" cy="320" r="7" transform="rotate(0,250,320)"/><circle cx="250" cy="334" r="7" transform="rotate(0,250,334)"/><circle cx="250" cy="348" r="7" transform="rotate(0,250,348)"/><circle cx="250" cy="376" r="7" transform="rotate(0,250,376)"/><circle cx="250" cy="390" r="7" transform="rotate(0,250,390)"/><circle cx="250" cy="418" r="7" transform="rotate(0,250,418)"/><circle cx="250" cy="432" r="7" transform="rotate(0,250,432)"/><circle cx="250" cy="446" r="7" transform="rotate(0,250,446)"/><circle cx="264" cy="68" r="7" transform="rotate(0,264,68)"/><circle cx="264" cy="96" r="7" transform="rotate(0,264,96)"/><circle cx="264" cy="166" r="7" transform="rotate(0,264,166)"/><circle cx="264" cy="180" r="7" transform="rotate(0,264,180)"/><circle cx="264" cy="194" r="7" transform="rotate(0,264,194)"/><circle cx="264" cy="208" r="7" transform="rotate(0,264,208)"/><circle cx="264" cy="306" r="7" transform="rotate(0,264,306)"/><circle cx="264" cy="334" r="7" transform="rotate(0,264,334)"/><circle cx="264" cy="348" r="7" transform="rotate(0,264,348)"/><circle cx="264" cy="362" r="7" transform="rotate(0,264,362)"/><circle cx="264" cy="376" r="7" transform="rotate(0,264,376)"/><circle cx="264" cy="390" r="7" transform="rotate(0,264,390)"/><circle cx="264" cy="418" r="7" transform="rotate(0,264,418)"/><circle cx="264" cy="432" r="7" transform="rotate(0,264,432)"/><circle cx="264" cy="460" r="7" transform="rotate(0,264,460)"/><circle cx="264" cy="474" r="7" transform="rotate(0,264,474)"/><circle cx="278" cy="54" r="7" transform="rotate(0,278,54)"/><circle cx="278" cy="68" r="7" transform="rotate(0,278,68)"/><circle cx="278" cy="82" r="7" transform="rotate(0,278,82)"/><circle cx="278" cy="110" r="7" transform="rotate(0,278,110)"/><circle cx="278" cy="138" r="7" transform="rotate(0,278,138)"/><circle cx="278" cy="264" r="7" transform="rotate(0,278,264)"/><circle cx="278" cy="306" r="7" transform="rotate(0,278,306)"/><circle cx="278" cy="320" r="7" transform="rotate(0,278,320)"/><circle cx="278" cy="362" r="7" transform="rotate(0,278,362)"/><circle cx="278" cy="376" r="7" transform="rotate(0,278,376)"/><circle cx="278" cy="404" r="7" transform="rotate(0,278,404)"/><circle cx="278" cy="418" r="7" transform="rotate(0,278,418)"/><circle cx="278" cy="446" r="7" transform="rotate(0,278,446)"/><circle cx="278" cy="460" r="7" transform="rotate(0,278,460)"/><circle cx="292" cy="26" r="7" transform="rotate(0,292,26)"/><circle cx="292" cy="40" r="7" transform="rotate(0,292,40)"/><circle cx="292" cy="96" r="7" transform="rotate(0,292,96)"/><circle cx="292" cy="138" r="7" transform="rotate(0,292,138)"/><circle cx="292" cy="180" r="7" transform="rotate(0,292,180)"/><circle cx="292" cy="208" r="7" transform="rotate(0,292,208)"/><circle cx="292" cy="236" r="7" transform="rotate(0,292,236)"/><circle cx="292" cy="250" r="7" transform="rotate(0,292,250)"/><circle cx="292" cy="264" r="7" transform="rotate(0,292,264)"/><circle cx="292" cy="278" r="7" transform="rotate(0,292,278)"/><circle cx="292" cy="292" r="7" transform="rotate(0,292,292)"/><circle cx="292" cy="334" r="7" transform="rotate(0,292,334)"/><circle cx="292" cy="348" r="7" transform="rotate(0,292,348)"/><circle cx="292" cy="362" r="7" transform="rotate(0,292,362)"/><circle cx="292" cy="376" r="7" transform="rotate(0,292,376)"/><circle cx="292" cy="390" r="7" transform="rotate(0,292,390)"/><circle cx="292" cy="418" r="7" transform="rotate(0,292,418)"/><circle cx="306" cy="26" r="7" transform="rotate(0,306,26)"/><circle cx="306" cy="54" r="7" transform="rotate(0,306,54)"/><circle cx="306" cy="82" r="7" transform="rotate(0,306,82)"/><circle cx="306" cy="110" r="7" transform="rotate(0,306,110)"/><circle cx="306" cy="124" r="7" transform="rotate(0,306,124)"/><circle cx="306" cy="138" r="7" transform="rotate(0,306,138)"/><circle cx="306" cy="166" r="7" transform="rotate(0,306,166)"/><circle cx="306" cy="208" r="7" transform="rotate(0,306,208)"/><circle cx="306" cy="250" r="7" transform="rotate(0,306,250)"/><circle cx="306" cy="264" r="7" transform="rotate(0,306,264)"/><circle cx="306" cy="278" r="7" transform="rotate(0,306,278)"/><circle cx="306" cy="334" r="7" transform="rotate(0,306,334)"/><circle cx="306" cy="362" r="7" transform="rotate(0,306,362)"/><circle cx="306" cy="432" r="7" transform="rotate(0,306,432)"/><circle cx="306" cy="446" r="7" transform="rotate(0,306,446)"/><circle cx="306" cy="460" r="7" transform="rotate(0,306,460)"/><circle cx="320" cy="26" r="7" transform="rotate(0,320,26)"/><circle cx="320" cy="68" r="7" transform="rotate(0,320,68)"/><circle cx="320" cy="82" r="7" transform="rotate(0,320,82)"/><circle cx="320" cy="138" r="7" transform="rotate(0,320,138)"/><circle cx="320" cy="152" r="7" transform="rotate(0,320,152)"/><circle cx="320" cy="194" r="7" transform="rotate(0,320,194)"/><circle cx="320" cy="222" r="7" transform="rotate(0,320,222)"/><circle cx="320" cy="236" r="7" transform="rotate(0,320,236)"/><circle cx="320" cy="250" r="7" transform="rotate(0,320,250)"/><circle cx="320" cy="278" r="7" transform="rotate(0,320,278)"/><circle cx="320" cy="306" r="7" transform="rotate(0,320,306)"/><circle cx="320" cy="320" r="7" transform="rotate(0,320,320)"/><circle cx="320" cy="334" r="7" transform="rotate(0,320,334)"/><circle cx="320" cy="348" r="7" transform="rotate(0,320,348)"/><circle cx="320" cy="390" r="7" transform="rotate(0,320,390)"/><circle cx="320" cy="432" r="7" transform="rotate(0,320,432)"/><circle cx="320" cy="474" r="7" transform="rotate(0,320,474)"/><circle cx="334" cy="54" r="7" transform="rotate(0,334,54)"/><circle cx="334" cy="68" r="7" transform="rotate(0,334,68)"/><circle cx="334" cy="82" r="7" transform="rotate(0,334,82)"/><circle cx="334" cy="96" r="7" transform="rotate(0,334,96)"/><circle cx="334" cy="110" r="7" transform="rotate(0,334,110)"/><circle cx="334" cy="124" r="7" transform="rotate(0,334,124)"/><circle cx="334" cy="152" r="7" transform="rotate(0,334,152)"/><circle cx="334" cy="180" r="7" transform="rotate(0,334,180)"/><circle cx="334" cy="208" r="7" transform="rotate(0,334,208)"/><circle cx="334" cy="222" r="7" transform="rotate(0,334,222)"/><circle cx="334" cy="250" r="7" transform="rotate(0,334,250)"/><circle cx="334" cy="264" r="7" transform="rotate(0,334,264)"/><circle cx="334" cy="278" r="7" transform="rotate(0,334,278)"/><circle cx="334" cy="292" r="7" transform="rotate(0,334,292)"/><circle cx="334" cy="306" r="7" transform="rotate(0,334,306)"/><circle cx="334" cy="320" r="7" transform="rotate(0,334,320)"/><circle cx="334" cy="348" r="7" transform="rotate(0,334,348)"/><circle cx="334" cy="376" r="7" transform="rotate(0,334,376)"/><circle cx="334" cy="390" r="7" transform="rotate(0,334,390)"/><circle cx="334" cy="418" r="7" transform="rotate(0,334,418)"/><circle cx="334" cy="460" r="7" transform="rotate(0,334,460)"/><circle cx="334" cy="474" r="7" transform="rotate(0,334,474)"/><circle cx="348" cy="40" r="7" transform="rotate(0,348,40)"/><circle cx="348" cy="54" r="7" transform="rotate(0,348,54)"/><circle cx="348" cy="82" r="7" transform="rotate(0,348,82)"/><circle cx="348" cy="96" r="7" transform="rotate(0,348,96)"/><circle cx="348" cy="138" r="7" transform="rotate(0,348,138)"/><circle cx="348" cy="152" r="7" transform="rotate(0,348,152)"/><circle cx="348" cy="180" r="7" transform="rotate(0,348,180)"/><circle cx="348" cy="208" r="7" transform="rotate(0,348,208)"/><circle cx="348" cy="236" r="7" transform="rotate(0,348,236)"/><circle cx="348" cy="306" r="7" transform="rotate(0,348,306)"/><circle cx="348" cy="362" r="7" transform="rotate(0,348,362)"/><circle cx="348" cy="390" r="7" transform="rotate(0,348,390)"/><circle cx="348" cy="418" r="7" transform="rotate(0,348,418)"/><circle cx="348" cy="432" r="7" transform="rotate(0,348,432)"/><circle cx="348" cy="474" r="7" transform="rotate(0,348,474)"/><circle cx="362" cy="26" r="7" transform="rotate(0,362,26)"/><circle cx="362" cy="54" r="7" transform="rotate(0,362,54)"/><circle cx="362" cy="82" r="7" transform="rotate(0,362,82)"/><circle cx="362" cy="110" r="7" transform="rotate(0,362,110)"/><circle cx="362" cy="138" r="7" transform="rotate(0,362,138)"/><circle cx="362" cy="208" r="7" transform="rotate(0,362,208)"/><circle cx="362" cy="278" r="7" transform="rotate(0,362,278)"/><circle cx="362" cy="292" r="7" transform="rotate(0,362,292)"/><circle cx="362" cy="334" r="7" transform="rotate(0,362,334)"/><circle cx="362" cy="362" r="7" transform="rotate(0,362,362)"/><circle cx="362" cy="376" r="7" transform="rotate(0,362,376)"/><circle cx="362" cy="390" r="7" transform="rotate(0,362,390)"/><circle cx="362" cy="404" r="7" transform="rotate(0,362,404)"/><circle cx="362" cy="418" r="7" transform="rotate(0,362,418)"/><circle cx="362" cy="432" r="7" transform="rotate(0,362,432)"/><circle cx="376" cy="138" r="7" transform="rotate(0,376,138)"/><circle cx="376" cy="166" r="7" transform="rotate(0,376,166)"/><circle cx="376" cy="236" r="7" transform="rotate(0,376,236)"/><circle cx="376" cy="250" r="7" transform="rotate(0,376,250)"/><circle cx="376" cy="292" r="7" transform="rotate(0,376,292)"/><circle cx="376" cy="306" r="7" transform="rotate(0,376,306)"/><circle cx="376" cy="320" r="7" transform="rotate(0,376,320)"/><circle cx="376" cy="362" r="7" transform="rotate(0,376,362)"/><circle cx="376" cy="418" r="7" transform="rotate(0,376,418)"/><circle cx="376" cy="432" r="7" transform="rotate(0,376,432)"/><circle cx="376" cy="460" r="7" transform="rotate(0,376,460)"/><circle cx="390" cy="166" r="7" transform="rotate(0,390,166)"/><circle cx="390" cy="180" r="7" transform="rotate(0,390,180)"/><circle cx="390" cy="194" r="7" transform="rotate(0,390,194)"/><circle cx="390" cy="208" r="7" transform="rotate(0,390,208)"/><circle cx="390" cy="222" r="7" transform="rotate(0,390,222)"/><circle cx="390" cy="250" r="7" transform="rotate(0,390,250)"/><circle cx="390" cy="278" r="7" transform="rotate(0,390,278)"/><circle cx="390" cy="292" r="7" transform="rotate(0,390,292)"/><circle cx="390" cy="306" r="7" transform="rotate(0,390,306)"/><circle cx="390" cy="320" r="7" transform="rotate(0,390,320)"/><circle cx="390" cy="348" r="7" transform="rotate(0,390,348)"/><circle cx="390" cy="362" r="7" transform="rotate(0,390,362)"/><circle cx="390" cy="390" r="7" transform="rotate(0,390,390)"/><circle cx="390" cy="418" r="7" transform="rotate(0,390,418)"/><circle cx="404" cy="138" r="7" transform="rotate(0,404,138)"/><circle cx="404" cy="152" r="7" transform="rotate(0,404,152)"/><circle cx="404" cy="166" r="7" transform="rotate(0,404,166)"/><circle cx="404" cy="222" r="7" transform="rotate(0,404,222)"/><circle cx="404" cy="250" r="7" transform="rotate(0,404,250)"/><circle cx="404" cy="264" r="7" transform="rotate(0,404,264)"/><circle cx="404" cy="306" r="7" transform="rotate(0,404,306)"/><circle cx="404" cy="348" r="7" transform="rotate(0,404,348)"/><circle cx="404" cy="362" r="7" transform="rotate(0,404,362)"/><circle cx="404" cy="418" r="7" transform="rotate(0,404,418)"/><circle cx="404" cy="432" r="7" transform="rotate(0,404,432)"/><circle cx="404" cy="446" r="7" transform="rotate(0,404,446)"/><circle cx="404" cy="460" r="7" transform="rotate(0,404,460)"/><circle cx="418" cy="152" r="7" transform="rotate(0,418,152)"/><circle cx="418" cy="166" r="7" transform="rotate(0,418,166)"/><circle cx="418" cy="180" r="7" transform="rotate(0,418,180)"/><circle cx="418" cy="222" r="7" transform="rotate(0,418,222)"/><circle cx="418" cy="250" r="7" transform="rotate(0,418,250)"/><circle cx="418" cy="278" r="7" transform="rotate(0,418,278)"/><circle cx="418" cy="292" r="7" transform="rotate(0,418,292)"/><circle cx="418" cy="334" r="7" transform="rotate(0,418,334)"/><circle cx="418" cy="348" r="7" transform="rotate(0,418,348)"/><circle cx="418" cy="362" r="7" transform="rotate(0,418,362)"/><circle cx="418" cy="376" r="7" transform="rotate(0,418,376)"/><circle cx="418" cy="390" r="7" transform="rotate(0,418,390)"/><circle cx="418" cy="404" r="7" transform="rotate(0,418,404)"/><circle cx="418" cy="418" r="7" transform="rotate(0,418,418)"/><circle cx="418" cy="446" r="7" transform="rotate(0,418,446)"/><circle cx="418" cy="460" r="7" transform="rotate(0,418,460)"/><circle cx="418" cy="474" r="7" transform="rotate(0,418,474)"/><circle cx="432" cy="138" r="7" transform="rotate(0,432,138)"/><circle cx="432" cy="152" r="7" transform="rotate(0,432,152)"/><circle cx="432" cy="166" r="7" transform="rotate(0,432,166)"/><circle cx="432" cy="180" r="7" transform="rotate(0,432,180)"/><circle cx="432" cy="222" r="7" transform="rotate(0,432,222)"/><circle cx="432" cy="264" r="7" transform="rotate(0,432,264)"/><circle cx="432" cy="278" r="7" transform="rotate(0,432,278)"/><circle cx="432" cy="292" r="7" transform="rotate(0,432,292)"/><circle cx="432" cy="320" r="7" transform="rotate(0,432,320)"/><circle cx="432" cy="334" r="7" transform="rotate(0,432,334)"/><circle cx="432" cy="348" r="7" transform="rotate(0,432,348)"/><circle cx="432" cy="404" r="7" transform="rotate(0,432,404)"/><circle cx="432" cy="460" r="7" transform="rotate(0,432,460)"/><circle cx="432" cy="474" r="7" transform="rotate(0,432,474)"/><circle cx="446" cy="138" r="7" transform="rotate(0,446,138)"/><circle cx="446" cy="194" r="7" transform="rotate(0,446,194)"/><circle cx="446" cy="208" r="7" transform="rotate(0,446,208)"/><circle cx="446" cy="236" r="7" transform="rotate(0,446,236)"/><circle cx="446" cy="264" r="7" transform="rotate(0,446,264)"/><circle cx="446" cy="278" r="7" transform="rotate(0,446,278)"/><circle cx="446" cy="306" r="7" transform="rotate(0,446,306)"/><circle cx="446" cy="334" r="7" transform="rotate(0,446,334)"/><circle cx="446" cy="390" r="7" transform="rotate(0,446,390)"/><circle cx="446" cy="404" r="7" transform="rotate(0,446,404)"/><circle cx="446" cy="446" r="7" transform="rotate(0,446,446)"/><circle cx="460" cy="138" r="7" transform="rotate(0,460,138)"/><circle cx="460" cy="166" r="7" transform="rotate(0,460,166)"/><circle cx="460" cy="180" r="7" transform="rotate(0,460,180)"/><circle cx="460" cy="194" r="7" transform="rotate(0,460,194)"/><circle cx="460" cy="208" r="7" transform="rotate(0,460,208)"/><circle cx="460" cy="250" r="7" transform="rotate(0,460,250)"/><circle cx="460" cy="264" r="7" transform="rotate(0,460,264)"/><circle cx="460" cy="306" r="7" transform="rotate(0,460,306)"/><circle cx="460" cy="334" r="7" transform="rotate(0,460,334)"/><circle cx="460" cy="362" r="7" transform="rotate(0,460,362)"/><circle cx="460" cy="390" r="7" transform="rotate(0,460,390)"/><circle cx="460" cy="404" r="7" transform="rotate(0,460,404)"/><circle cx="460" cy="418" r="7" transform="rotate(0,460,418)"/><circle cx="460" cy="474" r="7" transform="rotate(0,460,474)"/><circle cx="474" cy="194" r="7" transform="rotate(0,474,194)"/><circle cx="474" cy="222" r="7" transform="rotate(0,474,222)"/><circle cx="474" cy="264" r="7" transform="rotate(0,474,264)"/><circle cx="474" cy="292" r="7" transform="rotate(0,474,292)"/><circle cx="474" cy="320" r="7" transform="rotate(0,474,320)"/><circle cx="474" cy="348" r="7" transform="rotate(0,474,348)"/><circle cx="474" cy="390" r="7" transform="rotate(0,474,390)"/><circle cx="474" cy="418" r="7" transform="rotate(0,474,418)"/><circle cx="474" cy="432" r="7" transform="rotate(0,474,432)"/><circle cx="474" cy="446" r="7" transform="rotate(0,474,446)"/></clipPath><clipPath id="clip-path-corners-square-color-0-0"><path clip-rule="evenodd" d="M 68 19a 49 49 0 1 0 0.1 0zm 0 14a 35 35 0 1 1 -0.1 0Z" transform="rotate(0,68,68)"/></clipPath><clipPath id="clip-path-corners-dot-color-0-0"><circle cx="68" cy="68" r="21" transform="rotate(0,68,68)"/></clipPath><clipPath id="clip-path-corners-square-color-1-0"><path clip-rule="evenodd" d="M 432 19a 49 49 0 1 0 0.1 0zm 0 14a 35 35 0 1 1 -0.1 0Z" transform="rotate(90,432,68)"/></clipPath><clipPath id="clip-path-corners-dot-color-1-0"><circle cx="432" cy="68" r="21" transform="rotate(90,432,68)"/></clipPath><clipPath id="clip-path-corners-square-color-0-1"><path clip-rule="evenodd" d="M 68 383a 49 49 0 1 0 0.1 0zm 0 14a 35 35 0 1 1 -0.1 0Z" transform="rotate(-90,68,432)"/></clipPath><clipPath id="clip-path-corners-dot-color-0-1"><circle cx="68" cy="432" r="21" transform="rotate(-90,68,432)"/></clipPath></defs><rect x="0" y="0" height="500" width="500" clip-path="url('#clip-path-background-color')" fill="#fff"/><rect x="0" y="0" height="500" width="500" clip-path="url('#clip-path-dot-color')" fill="#000000"/><rect x="19" y="19" height="98" width="98" clip-path="url('#clip-path-corners-square-color-0-0')" fill="#000000"/><rect x="47" y="47" height="42" width="42" clip-path="url('#clip-path-corners-dot-color-0-0')" fill="#000000"/><rect x="383" y="19" height="98" width="98" clip-path="url('#clip-path-corners-square-color-1-0')" fill="#000000"/><rect x="411" y="47" height="42" width="42" clip-path="url('#clip-path-corners-dot-color-1-0')" fill="#000000"/><rect x="19" y="383" height="98" width="98" clip-path="url('#clip-path-corners-square-color-0-1')" fill="#000000"/><rect x="47" y="411" height="42" width="42" clip-path="url('#clip-path-corners-dot-color-0-1')" fill="#000000"/></svg>