<?xml version="1.0" standalone="no"?>
<svg xmlns="http://www.w3.org/2000/svg" width="500" height="500"><defs><clipPath id="clip-path-dot-color"><path d="M 19 159v 14h 7a 7 7, 0, 0, 0, 0 -14" transform="rotate(180,26,166)"/><path d="M 19 187v 14h 7a 7 7, 0, 0, 0, 0 -14" transform="rotate(180,26,194)"/><path d="M 19 215v 14h 7a 7 7, 0, 0, 0, 0 -14" transform="rotate(-90,26,222)"/><rect x="19" y="229" width="14" height="14" transform="rotate(0,26,236)"/><rect x="19" y="243" width="14" height="14" transform="rotate(0,26,250)"/><rect x="19" y="257" width="14" height="14" transform="rotate(0,26,264)"/><path d="M 19 271v 14h 14v -7a 7 7, 0, 0, 0, -7 -7" transform="rotate(180,26,278)"/><path d="M 19 313v 14h 7a 7 7, 0, 0, 0, 0 -14" transform="rotate(-90,26,320)"/><path d="M 19 327v 14h 7a 7 7, 0, 0, 0, 0 -14" transform="rotate(90,26,334)"/><path d="M 33 131v 14h 7a 7 7, 0, 0, 0, 0 -14" transform="rotate(-90,40,138)"/><rect x="33" y="145" width="14" height="14" transform="rotate(0,40,152)"/><path d="M 33 159v 14h 14v -7a 7 7, 0, 0, 0, -7 -7" transform="rotate(90,40,166)"/><rect x="33" y="187" width="14" height="14" transform="rotate(0,40,194)"/><path d="M 33 201v 14h 14v -7a 7 7, 0, 0, 0, -7 -7" transform="rotate(180,40,208)"/><rect x="33" y="229" width="14" height="14" transform="rotate(0,40,236)"/><rect x="33" y="243" width="14" height="14" transform="rotate(0,40,250)"/><path d="M 33 271v 14h 14v -7a 7 7, 0, 0, 0, -7 -7" transform="rotate(0,40,278)"/><path d="M 33 285v 14h 14v -7a 7 7, 0, 0, 0, -7 -7" transform="rotate(180,40,292)"/><path d="M 33 355v 14h 7a 7 7, 0, 0, 0, 0 -14" transform="rotate(180,40,362)"/><rect x="47" y="145" width="14" height="14" transform="rotate(0,54,152)"/><rect x="47" y="187" width="14" height="14" transform="rotate(0,54,194)"/><rect x="47" y="201" width="14" height="14" transform="rotate(0,54,208)"/><rect x="47" y="229" width="14" height="14" transform="rotate(0,54,236)"/><rect x="47" y="243" width="14" height="14" transform="rotate(0,54,250)"/><path d="M 47 285v 14h 14v -7a 7 7, 0, 0, 0, -7 -7" transform="rotate(0,54,292)"/><rect x="47" y="299" width="14" height="14" transform="rotate(0,54,306)"/><path d="M 47 313v 14h 7a 7 7, 0, 0, 0, 0 -14" transform="rotate(90,54,320)"/><path d="M 47 341v 14h 7a 7 7, 0, 0, 0, 0 -14" transform="rotate(-90,54,348)"/><rect x="47" y="355" width="14" height="14" transform="rotate(0,54,362)"/><path d="M 61 131v 14h 14v -7a 7 7, 0, 0, 0, -7 -7" transform="rotate(-90,68,138)"/><path d="M 61 145v 14h 14v -7a 7 7, 0, 0, 0, -7 -7" transform="rotate(90,68,152)"/><rect x="61" y="187" width="14" height="14" transform="rotate(0,68,194)"/><path d="M 61 201v 14h 14v -7a 7 7, 0, 0, 0, -7 -7" transform="rotate(90,68,208)"/><rect x="61" y="229" width="14" height="14" transform="rotate(0,68,236)"/><path d="M 61 243v 14h 14v -7a 7 7, 0, 0, 0, -7 -7" transform="rotate(90,68,250)"/><circle cx="68" cy="278" r="7" transform="rotate(0,68,278)"/><path d="M 61 299v 14h 7a 7 7, 0, 0, 0, 0 -14" transform="rotate(0,68,306)"/><path d="M 61 327v 14h 7a 7 7, 0, 0, 0, 0 -14" transform="rotate(180,68,334)"/><path d="M 61 355v 14h 7a 7 7, 0, 0, 0, 0 -14" transform="rotate(0,68,362)"/><path d="M 75 131v 14h 7a 7 7, 0, 0, 0, 0 -14" transform="rotate(0,82,138)"/><circle cx="82" cy="166" r="7" transform="rotate(0,82,166)"/><path d="M 75 187v 14h 7a 7 7, 0, 0, 0, 0 -14" transform="rotate(0,82,194)"/><path d="M 75 229v 14h 7a 7 7, 0, 0, 0, 0 -14" transform="rotate(0,82,236)"/><circle cx="82" cy="264" r="7" transform="rotate(0,82,264)"/><path d="M 75 327v 14h 14v -7a 7 7, 0, 0, 0, -7 -7" transform="rotate(0,82,334)"/><path d="M 75 341v 14h 7a 7 7, 0, 0, 0, 0 -14" transform="rotate(90,82,348)"/><circle cx="96" cy="152" r="7" transform="rotate(0,96,152)"/><circle cx="96" cy="180" r="7" transform="rotate(0,96,180)"/><path d="M 89 271v 14h 14v -7a 7 7, 0, 0, 0, -7 -7" transform="rotate(-90,96,278)"/><path d="M 89 285v 14h 7a 7 7, 0, 0, 0, 0 -14" transform="rotate(90,96,292)"/><circle cx="96" cy="320" r="7" transform="rotate(0,96,320)"/><path d="M 89 355v 14h 7a 7 7, 0, 0, 0, 0 -14" transform="rotate(180,96,362)"/><path d="M 103 131v 14h 7a 7 7, 0, 0, 0, 0 -14" transform="rotate(180,110,138)"/><circle cx="110" cy="166" r="7" transform="rotate(0,110,166)"/><path d="M 103 187v 14h 7a 7 7, 0, 0, 0, 0 -14" transform="rotate(180,110,194)"/><path d="M 103 215v 14h 7a 7 7, 0, 0, 0, 0 -14" transform="rotate(180,110,222)"/><circle cx="110" cy="250" r="7" transform="rotate(0,110,250)"/><path d="M 103 271v 14h 7a 7 7, 0, 0, 0, 0 -14" transform="rotate(0,110,278)"/><circle cx="110" cy="306" r="7" transform="rotate(0,110,306)"/><path d="M 103 327v 14h 7a 7 7, 0, 0, 0, 0 -14" transform="rotate(180,110,334)"/><path d="M 103 355v 14h 7a 7 7, 0, 0, 0, 0 -14" transform="rotate(0,110,362)"/><rect x="117" y="131" width="14" height="14" transform="rotate(0,124,138)"/><path d="M 117 145v 14h 7a 7 7, 0, 0, 0, 0 -14" transform="rotate(90,124,152)"/><rect x="117" y="187" width="14" height="14" transform="rotate(0,124,194)"/><path d="M 117 215v 14h 7a 7 7, 0, 0, 0, 0 -14" transform="rotate(0,124,222)"/><path d="M 117 327v 14h 14v -7a 7 7, 0, 0, 0, -7 -7" transform="rotate(0,124,334)"/><path d="M 117 341v 14h 14v -7a 7 7, 0, 0, 0, -7 -7" transform="rotate(180,124,348)"/><path d="M 131 33v 14h 7a 7 7, 0, 0, 0, 0 -14" transform="rotate(180,138,40)"/><path d="M 131 61v 14h 14v -7a 7 7, 0, 0, 0, -7 -7" transform="rotate(-90,138,68)"/><rect x="131" y="75" width="14" height="14" transform="rotate(0,138,82)"/><rect x="131" y="89" width="14" height="14" transform="rotate(0,138,96)"/><path d="M 131 103v 14h 7a 7 7, 0, 0, 0, 0 -14" transform="rotate(90,138,110)"/><path d="M 131 131v 14h 7a 7 7, 0, 0, 0, 0 -14" transform="rotate(0,138,138)"/><path d="M 131 159v 14h 7a 7 7, 0, 0, 0, 0 -14" transform="rotate(180,138,166)"/><rect x="131" y="187" width="14" height="14" transform="rotate(0,138,194)"/><path d="M 131 243v 14h 7a 7 7, 0, 0, 0, 0 -14" transform="rotate(-90,138,250)"/><path d="M 131 257v 14h 14v -7a 7 7, 0, 0, 0, -7 -7" transform="rotate(180,138,264)"/><rect x="131" y="341" width="14" height="14" transform="rotate(0,138,348)"/><path d="M 131 369v 14h 7a 7 7, 0, 0, 0, 0 -14" transform="rotate(-90,138,376)"/><path d="M 131 383v 14h 7a 7 7, 0, 0, 0, 0 -14" transform="rotate(90,138,390)"/><path d="M 131 411v 14h 14v -7a 7 7, 0, 0, 0, -7 -7" transform="rotate(-90,138,418)"/><path d="M 131 425v 14h 14v -7a 7 7, 0, 0, 0, -7 -7" transform="rotate(180,138,432)"/><circle cx="138" cy="460" r="7" transform="rotate(0,138,460)"/><rect x="145" y="33" width="14" height="14" transform="rotate(0,152,40)"/><path d="M 145 61v 14h 14v -7a 7 7, 0, 0, 0, -7 -7" transform="rotate(0,152,68)"/><rect x="145" y="75" width="14" height="14" transform="rotate(0,152,82)"/><rect x="145" y="159" width="14" height="14" transform="rotate(0,152,166)"/><path d="M 145 187v 14h 7a 7 7, 0, 0, 0, 0 -14" transform="rotate(0,152,194)"/><circle cx="152" cy="236" r="7" transform="rotate(0,152,236)"/><path d="M 145 257v 14h 7a 7 7, 0, 0, 0, 0 -14" transform="rotate(0,152,264)"/><circle cx="152" cy="292" r="7" transform="rotate(0,152,292)"/><path d="M 145 313v 14h 7a 7 7, 0, 0, 0, 0 -14" transform="rotate(-90,152,320)"/><rect x="145" y="327" width="14" height="14" transform="rotate(0,152,334)"/><rect x="145" y="341" width="14" height="14" transform="rotate(0,152,348)"/><rect x="145" y="411" width="14" height="14" transform="rotate(0,152,418)"/><rect x="145" y="425" width="14" height="14" transform="rotate(0,152,432)"/><path d="M 145 439v 14h 14v -7a 7 7, 0, 0, 0, -7 -7" transform="rotate(180,152,446)"/><path d="M 159 19v 14h 7a 7 7, 0, 0, 0, 0 -14" transform="rotate(-90,166,26)"/><rect x="159" y="33" width="14" height="14" transform="rotate(0,166,40)"/><path d="M 159 47v 14h 14v -7a 7 7, 0, 0, 0, -7 -7" transform="rotate(180,166,54)"/><rect x="159" y="75" width="14" height="14" transform="rotate(0,166,82)"/><circle cx="166" cy="110" r="7" transform="rotate(0,166,110)"/><circle cx="166" cy="138" r="7" transform="rotate(0,166,138)"/><path d="M 159 159v 14h 14v -7a 7 7, 0, 0, 0, -7 -7" transform="rotate(0,166,166)"/><path d="M 159 173v 14h 7a 7 7, 0, 0, 0, 0 -14" transform="rotate(90,166,180)"/><circle cx="166" cy="208" r="7" transform="rotate(0,166,208)"/><path d="M 159 243v 14h 7a 7 7, 0, 0, 0, 0 -14" transform="rotate(180,166,250)"/><circle cx="166" cy="306" r="7" transform="rotate(0,166,306)"/><rect x="159" y="327" width="14" height="14" transform="rotate(0,166,334)"/><rect x="159" y="341" width="14" height="14" transform="rotate(0,166,348)"/><path d="M 159 383v 14h 7a 7 7, 0, 0, 0, 0 -14" transform="rotate(180,166,390)"/><path d="M 159 411v 14h 14v -7a 7 7, 0, 0, 0, -7 -7" transform="rotate(0,166,418)"/><rect x="159" y="425" width="14" height="14" transform="rotate(0,166,432)"/><rect x="159" y="439" width="14" height="14" transform="rotate(0,166,446)"/><rect x="159" y="453" width="14" height="14" transform="rotate(0,166,460)"/><path d="M 159 467v 14h 14v -7a 7 7, 0, 0, 0, -7 -7" transform="rotate(180,166,474)"/><path d="M 173 33v 14h 14v -7a 7 7, 0, 0, 0, -7 -7" transform="rotate(0,180,40)"/><rect x="173" y="47" width="14" height="14" transform="rotate(0,180,54)"/><rect x="173" y="61" width="14" height="14" transform="rotate(0,180,68)"/><rect x="173" y="75" width="14" height="14" transform="rotate(0,180,82)"/><path d="M 173 89v 14h 7a 7 7, 0, 0, 0, 0 -14" transform="rotate(90,180,96)"/><circle cx="180" cy="152" r="7" transform="rotate(0,180,152)"/><circle cx="180" cy="194" r="7" transform="rotate(0,180,194)"/><path d="M 173 215v 14h 7a 7 7, 0, 0, 0, 0 -14" transform="rotate(-90,180,222)"/><rect x="173" y="229" width="14" height="14" transform="rotate(0,180,236)"/><path d="M 173 243v 14h 14v -7a 7 7, 0, 0, 0, -7 -7" transform="rotate(90,180,250)"/><path d="M 173 271v 14h 7a 7 7, 0, 0, 0, 0 -14" transform="rotate(-90,180,278)"/><path d="M 173 285v 14h 7a 7 7, 0, 0, 0, 0 -14" transform="rotate(90,180,292)"/><path d="M 173 313v 14h 14v -7a 7 7, 0, 0, 0, -7 -7" transform="rotate(-90,180,320)"/><rect x="173" y="327" width="14" height="14" transform="rotate(0,180,334)"/><rect x="173" y="341" width="14" height="14" transform="rotate(0,180,348)"/><rect x="173" y="383" width="14" height="14" transform="rotate(0,180,390)"/><path d="M 173 397v 14h 14v -7a 7 7, 0, 0, 0, -7 -7" transform="rotate(180,180,404)"/><path d="M 173 439v 14h 7a 7 7, 0, 0, 0, 0 -14" transform="rotate(0,180,446)"/><path d="M 173 467v 14h 7a 7 7, 0, 0, 0, 0 -14" transform="rotate(0,180,474)"/><path d="M 187 47v 14h 7a 7 7, 0, 0, 0, 0 -14" transform="rotate(0,194,54)"/><path d="M 187 103v 14h 7a 7 7, 0, 0, 0, 0 -14" transform="rotate(-90,194,110)"/><path d="M 187 117v 14h 7a 7 7, 0, 0, 0, 0 -14" transform="rotate(90,194,124)"/><circle cx="194" cy="166" r="7" transform="rotate(0,194,166)"/><path d="M 187 257v 14h 7a 7 7, 0, 0, 0, 0 -14" transform="rotate(180,194,264)"/><rect x="187" y="313" width="14" height="14" transform="rotate(0,194,320)"/><path d="M 187 341v 14h 14v -7a 7 7, 0, 0, 0, -7 -7" transform="rotate(0,194,348)"/><rect x="187" y="355" width="14" height="14" transform="rotate(0,194,362)"/><rect x="187" y="369" width="14" height="14" transform="rotate(0,194,376)"/><rect x="187" y="383" width="14" height="14" transform="rotate(0,194,390)"/><rect x="187" y="397" width="14" height="14" transform="rotate(0,194,404)"/><path d="M 201 19v 14h 7a 7 7, 0, 0, 0, 0 -14" transform="rotate(-90,208,26)"/><path d="M 201 33v 14h 14v -7a 7 7, 0, 0, 0, -7 -7" transform="rotate(180,208,40)"/><path d="M 201 61v 14h 7a 7 7, 0, 0, 0, 0 -14" transform="rotate(180,208,68)"/><circle cx="208" cy="96" r="7" transform="rotate(0,208,96)"/><path d="M 201 187v 14h 14v -7a 7 7, 0, 0, 0, -7 -7" transform="rotate(-90,208,194)"/><path d="M 201 201v 14h 7a 7 7, 0, 0, 0, 0 -14" transform="rotate(90,208,208)"/><rect x="201" y="257" width="14" height="14" transform="rotate(0,208,264)"/><rect x="201" y="271" width="14" height="14" transform="rotate(0,208,278)"/><rect x="201" y="285" width="14" height="14" transform="rotate(0,208,292)"/><rect x="201" y="299" width="14" height="14" transform="rotate(0,208,306)"/><path d="M 201 313v 14h 14v -7a 7 7, 0, 0, 0, -7 -7" transform="rotate(90,208,320)"/><path d="M 201 355v 14h 14v -7a 7 7, 0, 0, 0, -7 -7" transform="rotate(0,208,362)"/><path d="M 201 369v 14h 14v -7a 7 7, 0, 0, 0, -7 -7" transform="rotate(90,208,376)"/><path d="M 201 397v 14h 7a 7 7, 0, 0, 0, 0 -14" transform="rotate(0,208,404)"/><path d="M 201 425v 14h 14v -7a 7 7, 0, 0, 0, -7 -7" transform="rotate(-90,208,432)"/><path d="M 201 439v 14h 7a 7 7, 0, 0, 0, 0 -14" transform="rotate(90,208,446)"/><rect x="215" y="33" width="14" height="14" transform="rotate(0,222,40)"/><rect x="215" y="47" width="14" height="14" transform="rotate(0,222,54)"/><rect x="215" y="61" width="14" height="14" transform="rotate(0,222,68)"/><circle cx="222" cy="110" r="7" transform="rotate(0,222,110)"/><path d="M 215 159v 14h 7a 7 7, 0, 0, 0, 0 -14" transform="rotate(180,222,166)"/><path d="M 215 187v 14h 7a 7 7, 0, 0, 0, 0 -14" transform="rotate(0,222,194)"/><path d="M 215 215v 14h 7a 7 7, 0, 0, 0, 0 -14" transform="rotate(-90,222,222)"/><path d="M 215 229v 14h 14v -7a 7 7, 0, 0, 0, -7 -7" transform="rotate(180,222,236)"/><path d="M 215 257v 14h 14v -7a 7 7, 0, 0, 0, -7 -7" transform="rotate(0,222,264)"/><rect x="215" y="271" width="14" height="14" transform="rotate(0,222,278)"/><rect x="215" y="285" width="14" height="14" transform="rotate(0,222,292)"/><rect x="215" y="299" width="14" height="14" transform="rotate(0,222,306)"/><circle cx="222" cy="390" r="7" transform="rotate(0,222,390)"/><path d="M 215 411v 14h 14v -7a 7 7, 0, 0, 0, -7 -7" transform="rotate(-90,222,418)"/><rect x="215" y="425" width="14" height="14" transform="rotate(0,222,432)"/><path d="M 229 33v 14h 14v -7a 7 7, 0, 0, 0, -7 -7" transform="rotate(0,236,40)"/><rect x="229" y="47" width="14" height="14" transform="rotate(0,236,54)"/><rect x="229" y="61" width="14" height="14" transform="rotate(0,236,68)"/><path d="M 229 75v 14h 14v -7a 7 7, 0, 0, 0, -7 -7" transform="rotate(180,236,82)"/><circle cx="236" cy="138" r="7" transform="rotate(0,236,138)"/><path d="M 229 159v 14h 14v -7a 7 7, 0, 0, 0, -7 -7" transform="rotate(0,236,166)"/><path d="M 229 173v 14h 14v -7a 7 7, 0, 0, 0, -7 -7" transform="rotate(180,236,180)"/><path d="M 229 201v 14h 7a 7 7, 0, 0, 0, 0 -14" transform="rotate(180,236,208)"/><path d="M 229 229v 14h 7a 7 7, 0, 0, 0, 0 -14" transform="rotate(0,236,236)"/><rect x="229" y="299" width="14" height="14" transform="rotate(0,236,306)"/><path d="M 229 327v 14h 7a 7 7, 0, 0, 0, 0 -14" transform="rotate(-90,236,334)"/><path d="M 229 341v 14h 7a 7 7, 0, 0, 0, 0 -14" transform="rotate(90,236,348)"/><path d="M 229 369v 14h 7a 7 7, 0, 0, 0, 0 -14" transform="rotate(180,236,376)"/><path d="M 229 397v 14h 14v -7a 7 7, 0, 0, 0, -7 -7" transform="rotate(-90,236,404)"/><rect x="229" y="411" width="14" height="14" transform="rotate(0,236,418)"/><rect x="229" y="425" width="14" height="14" transform="rotate(0,236,432)"/><path d="M 229 439v 14h 7a 7 7, 0, 0, 0, 0 -14" transform="rotate(90,236,446)"/><circle cx="236" cy="474" r="7" transform="rotate(0,236,474)"/><rect x="243" y="47" width="14" height="14" transform="rotate(0,250,54)"/><rect x="243" y="61" width="14" height="14" transform="rotate(0,250,68)"/><path d="M 243 75v 14h 14v -7a 7 7, 0, 0, 0, -7 -7" transform="rotate(90,250,82)"/><path d="M 243 103v 14h 7a 7 7, 0, 0, 0, 0 -14" transform="rotate(-90,250,110)"/><path d="M 243 117v 14h 14v -7a 7 7, 0, 0, 0, -7 -7" transform="rotate(180,250,124)"/><path d="M 243 145v 14h 7a 7 7, 0, 0, 0, 0 -14" transform="rotate(180,250,152)"/><path d="M 243 173v 14h 14v -7a 7 7, 0, 0, 0, -7 -7" transform="rotate(0,250,180)"/><rect x="243" y="187" width="14" height="14" transform="rotate(0,250,194)"/><rect x="243" y="201" width="14" height="14" transform="rotate(0,250,208)"/><path d="M 243 215v 14h 7a 7 7, 0, 0, 0, 0 -14" transform="rotate(90,250,222)"/><circle cx="250" cy="278" r="7" transform="rotate(0,250,278)"/><rect x="243" y="299" width="14" height="14" transform="rotate(0,250,306)"/><path d="M 243 355v 14h 7a 7 7, 0, 0, 0, 0 -14" transform="rotate(-90,250,362)"/><rect x="243" y="369" width="14" height="14" transform="rotate(0,250,376)"/><rect x="243" y="383" width="14" height="14" transform="rotate(0,250,390)"/><rect x="243" y="397" width="14" height="14" transform="rotate(0,250,404)"/><rect x="243" y="411" width="14" height="14" transform="rotate(0,250,418)"/><path d="M 243 425v 14h 14v -7a 7 7, 0, 0, 0, -7 -7" transform="rotate(90,250,432)"/><path d="M 257 47v 14h 14v -7a 7 7, 0, 0, 0, -7 -7" transform="rotate(0,264,54)"/><path d="M 257 61v 14h 14v -7a 7 7, 0, 0, 0, -7 -7" transform="rotate(90,264,68)"/><path d="M 257 117v 14h 14v -7a 7 7, 0, 0, 0, -7 -7" transform="rotate(0,264,124)"/><rect x="257" y="131" width="14" height="14" transform="rotate(0,264,138)"/><path d="M 257 145v 14h 14v -7a 7 7, 0, 0, 0, -7 -7" transform="rotate(90,264,152)"/><rect x="257" y="201" width="14" height="14" transform="rotate(0,264,208)"/><path d="M 257 229v 14h 7a 7 7, 0, 0, 0, 0 -14" transform="rotate(-90,264,236)"/><path d="M 257 243v 14h 7a 7 7, 0, 0, 0, 0 -14" transform="rotate(90,264,250)"/><path d="M 257 285v 14h 14v -7a 7 7, 0, 0, 0, -7 -7" transform="rotate(-90,264,292)"/><path d="M 257 299v 14h 14v -7a 7 7, 0, 0, 0, -7 -7" transform="rotate(90,264,306)"/><path d="M 257 327v 14h 7a 7 7, 0, 0, 0, 0 -14" transform="rotate(180,264,334)"/><path d="M 257 383v 14h 7a 7 7, 0, 0, 0, 0 -14" transform="rotate(0,264,390)"/><path d="M 257 411v 14h 7a 7 7, 0, 0, 0, 0 -14" transform="rotate(0,264,418)"/><path d="M 257 439v 14h 7a 7 7, 0, 0, 0, 0 -14" transform="rotate(180,264,446)"/><path d="M 257 467v 14h 7a 7 7, 0, 0, 0, 0 -14" transform="rotate(180,264,474)"/><path d="M 271 19v 14h 7a 7 7, 0, 0, 0, 0 -14" transform="rotate(-90,278,26)"/><path d="M 271 33v 14h 14v -7a 7 7, 0, 0, 0, -7 -7" transform="rotate(180,278,40)"/><circle cx="278" cy="110" r="7" transform="rotate(0,278,110)"/><rect x="271" y="131" width="14" height="14" transform="rotate(0,278,138)"/><path d="M 271 159v 14h 14v -7a 7 7, 0, 0, 0, -7 -7" transform="rotate(-90,278,166)"/><rect x="271" y="173" width="14" height="14" transform="rotate(0,278,180)"/><rect x="271" y="187" width="14" height="14" transform="rotate(0,278,194)"/><rect x="271" y="201" width="14" height="14" transform="rotate(0,278,208)"/><path d="M 271 215v 14h 7a 7 7, 0, 0, 0, 0 -14" transform="rotate(90,278,222)"/><path d="M 271 257v 14h 7a 7 7, 0, 0, 0, 0 -14" transform="rotate(180,278,264)"/><path d="M 271 285v 14h 7a 7 7, 0, 0, 0, 0 -14" transform="rotate(0,278,292)"/><path d="M 271 313v 14h 7a 7 7, 0, 0, 0, 0 -14" transform="rotate(-90,278,320)"/><rect x="271" y="327" width="14" height="14" transform="rotate(0,278,334)"/><rect x="271" y="341" width="14" height="14" transform="rotate(0,278,348)"/><path d="M 271 355v 14h 7a 7 7, 0, 0, 0, 0 -14" transform="rotate(90,278,362)"/><circle cx="278" cy="404" r="7" transform="rotate(0,278,404)"/><path d="M 271 425v 14h 14v -7a 7 7, 0, 0, 0, -7 -7" transform="rotate(-90,278,432)"/><rect x="271" y="439" width="14" height="14" transform="rotate(0,278,446)"/><rect x="271" y="453" width="14" height="14" transform="rotate(0,278,460)"/><path d="M 271 467v 14h 14v -7a 7 7, 0, 0, 0, -7 -7" transform="rotate(90,278,474)"/><path d="M 285 33v 14h 7a 7 7, 0, 0, 0, 0 -14" transform="rotate(0,292,40)"/><path d="M 285 117v 14h 14v -7a 7 7, 0, 0, 0, -7 -7" transform="rotate(-90,292,124)"/><path d="M 285 131v 14h 14v -7a 7 7, 0, 0, 0, -7 -7" transform="rotate(90,292,138)"/><rect x="285" y="159" width="14" height="14" transform="rotate(0,292,166)"/><path d="M 285 257v 14h 14v -7a 7 7, 0, 0, 0, -7 -7" transform="rotate(0,292,264)"/><path d="M 285 271v 14h 7a 7 7, 0, 0, 0, 0 -14" transform="rotate(90,292,278)"/><rect x="285" y="327" width="14" height="14" transform="rotate(0,292,334)"/><circle cx="292" cy="376" r="7" transform="rotate(0,292,376)"/><path d="M 285 411v 14h 7a 7 7, 0, 0, 0, 0 -14" transform="rotate(-90,292,418)"/><rect x="285" y="425" width="14" height="14" transform="rotate(0,292,432)"/><path d="M 285 439v 14h 14v -7a 7 7, 0, 0, 0, -7 -7" transform="rotate(90,292,446)"/><path d="M 299 19v 14h 7a 7 7, 0, 0, 0, 0 -14" transform="rotate(180,306,26)"/><path d="M 299 61v 14h 7a 7 7, 0, 0, 0, 0 -14" transform="rotate(-90,306,68)"/><path d="M 299 75v 14h 14v -7a 7 7, 0, 0, 0, -7 -7" transform="rotate(180,306,82)"/><path d="M 299 103v 14h 7a 7 7, 0, 0, 0, 0 -14" transform="rotate(-90,306,110)"/><rect x="299" y="117" width="14" height="14" transform="rotate(0,306,124)"/><path d="M 299 145v 14h 14v -7a 7 7, 0, 0, 0, -7 -7" transform="rotate(-90,306,152)"/><path d="M 299 159v 14h 14v -7a 7 7, 0, 0, 0, -7 -7" transform="rotate(90,306,166)"/><path d="M 299 187v 14h 7a 7 7, 0, 0, 0, 0 -14" transform="rotate(180,306,194)"/><circle cx="306" cy="250" r="7" transform="rotate(0,306,250)"/><path d="M 299 313v 14h 14v -7a 7 7, 0, 0, 0, -7 -7" transform="rotate(-90,306,320)"/><rect x="299" y="327" width="14" height="14" transform="rotate(0,306,334)"/><rect x="299" y="341" width="14" height="14" transform="rotate(0,306,348)"/><path d="M 299 355v 14h 14v -7a 7 7, 0, 0, 0, -7 -7" transform="rotate(180,306,362)"/><path d="M 299 425v 14h 7a 7 7, 0, 0, 0, 0 -14" transform="rotate(0,306,432)"/><circle cx="306" cy="460" r="7" transform="rotate(0,306,460)"/><rect x="313" y="19" width="14" height="14" transform="rotate(0,320,26)"/><rect x="313" y="33" width="14" height="14" transform="rotate(0,320,40)"/><path d="M 313 47v 14h 14v -7a 7 7, 0, 0, 0, -7 -7" transform="rotate(180,320,54)"/><path d="M 313 75v 14h 14v -7a 7 7, 0, 0, 0, -7 -7" transform="rotate(0,320,82)"/><path d="M 313 89v 14h 7a 7 7, 0, 0, 0, 0 -14" transform="rotate(90,320,96)"/><path d="M 313 117v 14h 7a 7 7, 0, 0, 0, 0 -14" transform="rotate(0,320,124)"/><rect x="313" y="145" width="14" height="14" transform="rotate(0,320,152)"/><rect x="313" y="187" width="14" height="14" transform="rotate(0,320,194)"/><rect x="313" y="201" width="14" height="14" transform="rotate(0,320,208)"/><path d="M 313 215v 14h 7a 7 7, 0, 0, 0, 0 -14" transform="rotate(90,320,222)"/><path d="M 313 257v 14h 7a 7 7, 0, 0, 0, 0 -14" transform="rotate(180,320,264)"/><rect x="313" y="313" width="14" height="14" transform="rotate(0,320,320)"/><rect x="313" y="341" width="14" height="14" transform="rotate(0,320,348)"/><path d="M 313 355v 14h 14v -7a 7 7, 0, 0, 0, -7 -7" transform="rotate(90,320,362)"/><path d="M 313 397v 14h 14v -7a 7 7, 0, 0, 0, -7 -7" transform="rotate(-90,320,404)"/><path d="M 313 411v 14h 7a 7 7, 0, 0, 0, 0 -14" transform="rotate(90,320,418)"/><rect x="327" y="19" width="14" height="14" transform="rotate(0,334,26)"/><path d="M 327 47v 14h 14v -7a 7 7, 0, 0, 0, -7 -7" transform="rotate(0,334,54)"/><path d="M 327 61v 14h 14v -7a 7 7, 0, 0, 0, -7 -7" transform="rotate(180,334,68)"/><circle cx="334" cy="110" r="7" transform="rotate(0,334,110)"/><path d="M 327 131v 14h 7a 7 7, 0, 0, 0, 0 -14" transform="rotate(-90,334,138)"/><rect x="327" y="145" width="14" height="14" transform="rotate(0,334,152)"/><path d="M 327 159v 14h 7a 7 7, 0, 0, 0, 0 -14" transform="rotate(90,334,166)"/><rect x="327" y="187" width="14" height="14" transform="rotate(0,334,194)"/><path d="M 327 201v 14h 14v -7a 7 7, 0, 0, 0, -7 -7" transform="rotate(90,334,208)"/><path d="M 327 243v 14h 14v -7a 7 7, 0, 0, 0, -7 -7" transform="rotate(-90,334,250)"/><rect x="327" y="257" width="14" height="14" transform="rotate(0,334,264)"/><rect x="327" y="271" width="14" height="14" transform="rotate(0,334,278)"/><rect x="327" y="285" width="14" height="14" transform="rotate(0,334,292)"/><rect x="327" y="299" width="14" height="14" transform="rotate(0,334,306)"/><rect x="327" y="313" width="14" height="14" transform="rotate(0,334,320)"/><rect x="327" y="327" width="14" height="14" transform="rotate(0,334,334)"/><path d="M 327 341v 14h 14v -7a 7 7, 0, 0, 0, -7 -7" transform="rotate(90,334,348)"/><path d="M 327 383v 14h 7a 7 7, 0, 0, 0, 0 -14" transform="rotate(-90,334,390)"/><path d="M 327 397v 14h 14v -7a 7 7, 0, 0, 0, -7 -7" transform="rotate(90,334,404)"/><path d="M 327 439v 14h 14v -7a 7 7, 0, 0, 0, -7 -7" transform="rotate(-90,334,446)"/><rect x="327" y="453" width="14" height="14" transform="rotate(0,334,460)"/><path d="M 327 467v 14h 14v -7a 7 7, 0, 0, 0, -7 -7" transform="rotate(180,334,474)"/><rect x="341" y="19" width="14" height="14" transform="rotate(0,348,26)"/><rect x="341" y="61" width="14" height="14" transform="rotate(0,348,68)"/><path d="M 341 75v 14h 14v -7a 7 7, 0, 0, 0, -7 -7" transform="rotate(180,348,82)"/><path d="M 341 145v 14h 7a 7 7, 0, 0, 0, 0 -14" transform="rotate(0,348,152)"/><path d="M 341 173v 14h 7a 7 7, 0, 0, 0, 0 -14" transform="rotate(-90,348,180)"/><path d="M 341 187v 14h 14v -7a 7 7, 0, 0, 0, -7 -7" transform="rotate(90,348,194)"/><path d="M 341 229v 14h 7a 7 7, 0, 0, 0, 0 -14" transform="rotate(-90,348,236)"/><path d="M 341 243v 14h 14v -7a 7 7, 0, 0, 0, -7 -7" transform="rotate(90,348,250)"/><path d="M 341 285v 14h 14v -7a 7 7, 0, 0, 0, -7 -7" transform="rotate(0,348,292)"/><rect x="341" y="299" width="14" height="14" transform="rotate(0,348,306)"/><path d="M 341 369v 14h 7a 7 7, 0, 0, 0, 0 -14" transform="rotate(180,348,376)"/><path d="M 341 439v 14h 14v -7a 7 7, 0, 0, 0, -7 -7" transform="rotate(0,348,446)"/><rect x="341" y="453" width="14" height="14" transform="rotate(0,348,460)"/><rect x="341" y="467" width="14" height="14" transform="rotate(0,348,474)"/><path d="M 355 19v 14h 14v -7a 7 7, 0, 0, 0, -7 -7" transform="rotate(0,362,26)"/><rect x="355" y="33" width="14" height="14" transform="rotate(0,362,40)"/><rect x="355" y="47" width="14" height="14" transform="rotate(0,362,54)"/><rect x="355" y="61" width="14" height="14" transform="rotate(0,362,68)"/><path d="M 355 75v 14h 14v -7a 7 7, 0, 0, 0, -7 -7" transform="rotate(90,362,82)"/><path d="M 355 103v 14h 7a 7 7, 0, 0, 0, 0 -14" transform="rotate(-90,362,110)"/><rect x="355" y="117" width="14" height="14" transform="rotate(0,362,124)"/><path d="M 355 131v 14h 14v -7a 7 7, 0, 0, 0, -7 -7" transform="rotate(180,362,138)"/><circle cx="362" cy="166" r="7" transform="rotate(0,362,166)"/><path d="M 355 201v 14h 7a 7 7, 0, 0, 0, 0 -14" transform="rotate(-90,362,208)"/><path d="M 355 215v 14h 7a 7 7, 0, 0, 0, 0 -14" transform="rotate(90,362,222)"/><path d="M 355 271v 14h 7a 7 7, 0, 0, 0, 0 -14" transform="rotate(180,362,278)"/><path d="M 355 299v 14h 7a 7 7, 0, 0, 0, 0 -14" transform="rotate(0,362,306)"/><path d="M 355 355v 14h 14v -7a 7 7, 0, 0, 0, -7 -7" transform="rotate(-90,362,362)"/><rect x="355" y="369" width="14" height="14" transform="rotate(0,362,376)"/><rect x="355" y="383" width="14" height="14" transform="rotate(0,362,390)"/><rect x="355" y="397" width="14" height="14" transform="rotate(0,362,404)"/><path d="M 355 411v 14h 14v -7a 7 7, 0, 0, 0, -7 -7" transform="rotate(180,362,418)"/><path d="M 355 453v 14h 14v -7a 7 7, 0, 0, 0, -7 -7" transform="rotate(0,362,460)"/><path d="M 355 467v 14h 14v -7a 7 7, 0, 0, 0, -7 -7" transform="rotate(90,362,474)"/><path d="M 369 131v 14h 14v -7a 7 7, 0, 0, 0, -7 -7" transform="rotate(0,376,138)"/><path d="M 369 145v 14h 14v -7a 7 7, 0, 0, 0, -7 -7" transform="rotate(180,376,152)"/><path d="M 369 187v 14h 7a 7 7, 0, 0, 0, 0 -14" transform="rotate(180,376,194)"/><circle cx="376" cy="250" r="7" transform="rotate(0,376,250)"/><rect x="369" y="271" width="14" height="14" transform="rotate(0,376,278)"/><path d="M 369 313v 14h 7a 7 7, 0, 0, 0, 0 -14" transform="rotate(-90,376,320)"/><path d="M 369 327v 14h 7a 7 7, 0, 0, 0, 0 -14" transform="rotate(90,376,334)"/><rect x="369" y="355" width="14" height="14" transform="rotate(0,376,362)"/><rect x="369" y="411" width="14" height="14" transform="rotate(0,376,418)"/><path d="M 369 439v 14h 7a 7 7, 0, 0, 0, 0 -14" transform="rotate(180,376,446)"/><path d="M 383 145v 14h 7a 7 7, 0, 0, 0, 0 -14" transform="rotate(0,390,152)"/><path d="M 383 173v 14h 7a 7 7, 0, 0, 0, 0 -14" transform="rotate(-90,390,180)"/><rect x="383" y="187" width="14" height="14" transform="rotate(0,390,194)"/><path d="M 383 215v 14h 14v -7a 7 7, 0, 0, 0, -7 -7" transform="rotate(-90,390,222)"/><path d="M 383 229v 14h 14v -7a 7 7, 0, 0, 0, -7 -7" transform="rotate(180,390,236)"/><rect x="383" y="271" width="14" height="14" transform="rotate(0,390,278)"/><path d="M 383 285v 14h 14v -7a 7 7, 0, 0, 0, -7 -7" transform="rotate(180,390,292)"/><path d="M 383 341v 14h 14v -7a 7 7, 0, 0, 0, -7 -7" transform="rotate(-90,390,348)"/><rect x="383" y="355" width="14" height="14" transform="rotate(0,390,362)"/><circle cx="390" cy="390" r="7" transform="rotate(0,390,390)"/><rect x="383" y="411" width="14" height="14" transform="rotate(0,390,418)"/><rect x="383" y="439" width="14" height="14" transform="rotate(0,390,446)"/><path d="M 397 131v 14h 7a 7 7, 0, 0, 0, 0 -14" transform="rotate(180,404,138)"/><path d="M 397 187v 14h 14v -7a 7 7, 0, 0, 0, -7 -7" transform="rotate(0,404,194)"/><rect x="397" y="201" width="14" height="14" transform="rotate(0,404,208)"/><rect x="397" y="215" width="14" height="14" transform="rotate(0,404,222)"/><rect x="397" y="229" width="14" height="14" transform="rotate(0,404,236)"/><rect x="397" y="243" width="14" height="14" transform="rotate(0,404,250)"/><rect x="397" y="257" width="14" height="14" transform="rotate(0,404,264)"/><rect x="397" y="271" width="14" height="14" transform="rotate(0,404,278)"/><rect x="397" y="285" width="14" height="14" transform="rotate(0,404,292)"/><rect x="397" y="299" width="14" height="14" transform="rotate(0,404,306)"/><rect x="397" y="313" width="14" height="14" transform="rotate(0,404,320)"/><rect x="397" y="327" width="14" height="14" transform="rotate(0,404,334)"/><rect x="397" y="341" width="14" height="14" transform="rotate(0,404,348)"/><rect x="397" y="355" width="14" height="14" transform="rotate(0,404,362)"/><rect x="397" y="411" width="14" height="14" transform="rotate(0,404,418)"/><rect x="397" y="425" width="14" height="14" transform="rotate(0,404,432)"/><path d="M 397 439v 14h 14v -7a 7 7, 0, 0, 0, -7 -7" transform="rotate(90,404,446)"/><path d="M 397 467v 14h 7a 7 7, 0, 0, 0, 0 -14" transform="rotate(180,404,474)"/><rect x="411" y="131" width="14" height="14" transform="rotate(0,418,138)"/><path d="M 411 145v 14h 7a 7 7, 0, 0, 0, 0 -14" transform="rotate(90,418,152)"/><path d="M 411 173v 14h 7a 7 7, 0, 0, 0, 0 -14" transform="rotate(180,418,180)"/><path d="M 411 229v 14h 14v -7a 7 7, 0, 0, 0, -7 -7" transform="rotate(0,418,236)"/><path d="M 411 243v 14h 14v -7a 7 7, 0, 0, 0, -7 -7" transform="rotate(90,418,250)"/><path d="M 411 271v 14h 7a 7 7, 0, 0, 0, 0 -14" transform="rotate(0,418,278)"/><path d="M 411 313v 14h 14v -7a 7 7, 0, 0, 0, -7 -7" transform="rotate(0,418,320)"/><rect x="411" y="327" width="14" height="14" transform="rotate(0,418,334)"/><rect x="411" y="341" width="14" height="14" transform="rotate(0,418,348)"/><rect x="411" y="355" width="14" height="14" transform="rotate(0,418,362)"/><rect x="411" y="369" width="14" height="14" transform="rotate(0,418,376)"/><rect x="411" y="383" width="14" height="14" transform="rotate(0,418,390)"/><rect x="411" y="397" width="14" height="14" transform="rotate(0,418,404)"/><path d="M 411 411v 14h 14v -7a 7 7, 0, 0, 0, -7 -7" transform="rotate(90,418,418)"/><path d="M 411 453v 14h 7a 7 7, 0, 0, 0, 0 -14" transform="rotate(-90,418,460)"/><rect x="411" y="467" width="14" height="14" transform="rotate(0,418,474)"/><path d="M 425 131v 14h 7a 7 7, 0, 0, 0, 0 -14" transform="rotate(0,432,138)"/><path d="M 425 159v 14h 14v -7a 7 7, 0, 0, 0, -7 -7" transform="rotate(-90,432,166)"/><rect x="425" y="173" width="14" height="14" transform="rotate(0,432,180)"/><path d="M 425 187v 14h 14v -7a 7 7, 0, 0, 0, -7 -7" transform="rotate(180,432,194)"/><circle cx="432" cy="222" r="7" transform="rotate(0,432,222)"/><path d="M 425 257v 14h 7a 7 7, 0, 0, 0, 0 -14" transform="rotate(180,432,264)"/><rect x="425" y="327" width="14" height="14" transform="rotate(0,432,334)"/><path d="M 425 355v 14h 14v -7a 7 7, 0, 0, 0, -7 -7" transform="rotate(0,432,362)"/><rect x="425" y="369" width="14" height="14" transform="rotate(0,432,376)"/><rect x="425" y="397" width="14" height="14" transform="rotate(0,432,404)"/><path d="M 425 439v 14h 7a 7 7, 0, 0, 0, 0 -14" transform="rotate(180,432,446)"/><rect x="425" y="467" width="14" height="14" transform="rotate(0,432,474)"/><path d="M 439 145v 14h 7a 7 7, 0, 0, 0, 0 -14" transform="rotate(-90,446,152)"/><rect x="439" y="159" width="14" height="14" transform="rotate(0,446,166)"/><path d="M 439 187v 14h 14v -7a 7 7, 0, 0, 0, -7 -7" transform="rotate(0,446,194)"/><path d="M 439 201v 14h 14v -7a 7 7, 0, 0, 0, -7 -7" transform="rotate(180,446,208)"/><circle cx="446" cy="236" r="7" transform="rotate(0,446,236)"/><path d="M 439 257v 14h 14v -7a 7 7, 0, 0, 0, -7 -7" transform="rotate(0,446,264)"/><rect x="439" y="271" width="14" height="14" transform="rotate(0,446,278)"/><path d="M 439 285v 14h 14v -7a 7 7, 0, 0, 0, -7 -7" transform="rotate(180,446,292)"/><path d="M 439 313v 14h 7a 7 7, 0, 0, 0, 0 -14" transform="rotate(-90,446,320)"/><rect x="439" y="327" width="14" height="14" transform="rotate(0,446,334)"/><path d="M 439 341v 14h 7a 7 7, 0, 0, 0, 0 -14" transform="rotate(90,446,348)"/><rect x="439" y="369" width="14" height="14" transform="rotate(0,446,376)"/><rect x="439" y="397" width="14" height="14" transform="rotate(0,446,404)"/><rect x="439" y="411" width="14" height="14" transform="rotate(0,446,418)"/><rect x="439" y="425" width="14" height="14" transform="rotate(0,446,432)"/><rect x="439" y="439" width="14" height="14" transform="rotate(0,446,446)"/><rect x="439" y="453" width="14" height="14" transform="rotate(0,446,460)"/><rect x="439" y="467" width="14" height="14" transform="rotate(0,446,474)"/><circle cx="460" cy="138" r="7" transform="rotate(0,460,138)"/><rect x="453" y="159" width="14" height="14" transform="rotate(0,460,166)"/><path d="M 453 173v 14h 14v -7a 7 7, 0, 0, 0, -7 -7" transform="rotate(180,460,180)"/><path d="M 453 201v 14h 14v -7a 7 7, 0, 0, 0, -7 -7" transform="rotate(0,460,208)"/><path d="M 453 215v 14h 14v -7a 7 7, 0, 0, 0, -7 -7" transform="rotate(180,460,222)"/><circle cx="460" cy="250" r="7" transform="rotate(0,460,250)"/><path d="M 453 271v 14h 14v -7a 7 7, 0, 0, 0, -7 -7" transform="rotate(0,460,278)"/><rect x="453" y="285" width="14" height="14" transform="rotate(0,460,292)"/><path d="M 453 299v 14h 14v -7a 7 7, 0, 0, 0, -7 -7" transform="rotate(180,460,306)"/><path d="M 453 369v 14h 7a 7 7, 0, 0, 0, 0 -14" transform="rotate(0,460,376)"/><rect x="453" y="397" width="14" height="14" transform="rotate(0,460,404)"/><rect x="453" y="411" width="14" height="14" transform="rotate(0,460,418)"/><rect x="453" y="425" width="14" height="14" transform="rotate(0,460,432)"/><rect x="453" y="439" width="14" height="14" transform="rotate(0,460,446)"/><rect x="453" y="453" width="14" height="14" transform="rotate(0,460,460)"/><path d="M 453 467v 14h 14v -7a 7 7, 0, 0, 0, -7 -7" transform="rotate(90,460,474)"/><path d="M 467 145v 14h 7a 7 7, 0, 0, 0, 0 -14" transform="rotate(-90,474,152)"/><rect x="467" y="159" width="14" height="14" transform="rotate(0,474,166)"/><path d="M 467 173v 14h 14v -7a 7 7, 0, 0, 0, -7 -7" transform="rotate(90,474,180)"/><path d="M 467 215v 14h 7a 7 7, 0, 0, 0, 0 -14" transform="rotate(0,474,222)"/><path d="M 467 285v 14h 14v -7a 7 7, 0, 0, 0, -7 -7" transform="rotate(0,474,292)"/><path d="M 467 299v 14h 14v -7a 7 7, 0, 0, 0, -7 -7" transform="rotate(90,474,306)"/><path d="M 467 341v 14h 7a 7 7, 0, 0, 0, 0 -14" transform="rotate(-90,474,348)"/><path d="M 467 355v 14h 7a 7 7, 0, 0, 0, 0 -14" transform="rotate(90,474,362)"/><path d="M 467 397v 14h 14v -7a 7 7, 0, 0, 0, -7 -7" transform="rotate(0,474,404)"/><path d="M 467 411v 14h 14v -7a 7 7, 0, 0, 0, -7 -7" transform="rotate(90,474,418)"/></clipPath><clipPath id="clip-path-corners-square-color-0-0"><path clip-rule="evenodd" d="M 19 54v 28a 35 35, 0, 0, 0, 35 35h 28a 35 35, 0, 0, 0, 35 -35v -28a 35 35, 0, 0, 0, -35 -35h -28a 35 35, 0, 0, 0, -35 35M 54 33h 28a 21 21, 0, 0, 1, 21 21v 28a 21 21, 0, 0, 1, -21 21h -28a 21 21, 0, 0, 1, -21 -21v -28a 21 21, 0, 0, 1, 21 -21" transform="rotate(0,68,68)"/></clipPath><clipPath id="clip-path-corners-dot-color-0-0"><circle cx="68" cy="68" r="21" transform="rotate(0,68,68)"/></clipPath><clipPath id="clip-path-corners-square-color-1-0"><path clip-rule="evenodd" d="M 383 54v 28a 35 35, 0, 0, 0, 35 35h 28a 35 35, 0, 0, 0, 35 -35v -28a 35 35, 0, 0, 0, -35 -35h -28a 35 35, 0, 0, 0, -35 35M 418 33h 28a 21 21, 0, 0, 1, 21 21v 28a 21 21, 0, 0, 1, -21 21h -28a 21 21, 0, 0, 1, -21 -21v -28a 21 21, 0, 0, 1, 21 -21" transform="rotate(90,432,68)"/></clipPath><clipPath id="clip-path-corners-dot-color-1-0"><circle cx="432" cy="68" r="21" transform="rotate(90,432,68)"/></clipPath><clipPath id="clip-path-corners-square-color-0-1"><path clip-rule="evenodd" d="M 19 418v 28a 35 35, 0, 0, 0, 35 35h 28a 35 35, 0, 0, 0, 35 -35v -28a 35 35, 0, 0, 0, -35 -35h -28a 35 35, 0, 0, 0, -35 35M 54 397h 28a 21 21, 0, 0, 1, 21 21v 28a 21 21, 0, 0, 1, -21 21h -28a 21 21, 0, 0, 1, -21 -21v -28a 21 21, 0, 0, 1, 21 -21" transform="rotate(-90,68,432)"/></clipPath><clipPath id="clip-path-corners-dot-color-0-1"><circle cx="68" cy="432" r="21" transform="rotate(-90,68,432)"/></clipPath></defs><rect x="0" y="0" height="500" width="500" clip-path="url('#clip-path-background-color')" fill="#fff"/><rect x="0" y="0" height="500" width="500" clip-path="url('#clip-path-dot-color')" fill="#000000"/><rect x="19" y="19" height="98" width="98" clip-path="url('#clip-path-corners-square-color-0-0')" fill="#000000"/><rect x="47" y="47" height="42" width="42" clip-path="url('#clip-path-corners-dot-color-0-0')" fill="#000000"/><rect x="383" y="19" height="98" width="98" clip-path="url('#clip-path-corners-square-color-1-0')" fill="#000000"/><rect x="411" y="47" height="42" width="42" clip-path="url('#clip-path-corners-dot-color-1-0')" fill="#000000"/><rect x="19" y="383" height="98" width="98" clip-path="url('#clip-path-corners-square-color-0-1')" fill="#000000"/><rect x="47" y="411" height="42" width="42" clip-path="url('#clip-path-corners-dot-color-0-1')" fill="#000000"/></svg>